/* XPM */
static char *_1e339a54e6b4bad9b1b7ff898c2e6618rjTjmqqp5qQfj1U[] = {
/* columns rows colors chars-per-pixel */
"64 64 2 1 ",
"  c #010202",
". c #000001",
/* pixels */
"  .                   .     ........     .                   .  ",
" .     .           .        ........        .                 . ",
" .      .  .   .   .   .     ......     .   .   .   .  .      ..",
".      ...     .  .          ......        . .  .     ...      .",
"        .        .           ......           .        .        ",
"         ..     ..          ........          ..     ..         ",
"  .    ...      ...  .      ........         ...      ...    .  ",
"        .        ..       ............       ..        .        ",
" .  .   .      ..          ..........          ..      .   .  . ",
"      ... .    ..  .    .  ..........  .    .  ..    . ..       ",
".  ..   .     ..          ............        . ..     ..  ..  .",
" . .   ..         ..      ............      ..         ..   . . ",
".       . .                 ........                 . .       .",
"     .                      ........                      .     ",
" . ..  ..                 . ........ .                 ..  .. . ",
"       .         . ..     ............     .. .         .       ",
"       .          ..       ..........       ..          .       ",
"     .               .     ..........     .  .            .     ",
"     . ....       .          ......          .       .... .     ",
"       .                 ..  ......  ..                 .       ",
"        ..      ..  .  ....  ......  ....  .  ..      ..        ",
"       ..       ......   .. ........ ..   ......       ..       ",
"     . .        ......    ............    ......        . .     ",
"               .......   ..............   .......               ",
"      .      ........  ..................  ........      .      ",
"     . . .  ..   .....  ................  .....   ..  . . .     ",
"    ..  .     .   ....  .... ...... ....  ....   .     .  ..    ",
"     ..       . .. .........  ....  ......... .. .  .    ..     ",
"     ...  .     .. ........... .. ........... .      .  ...     ",
"     .....        .............  .............        .....     ",
"    . .. .       ..............  .............        . ..      ",
"    ....... .      ..........................      . .......    ",
"    ....... .      ..........................      . .......    ",
"    . .. .       ..............  ..............       . ..      ",
"     .....        .............  .............        .....     ",
"     ...  .      . ........... .. ........... ..    ..  ...     ",
"      .       . .. .........  ....  ......... .. .  .    ..     ",
"    ..  .     .   ....  .... ...... ....  ....   .     .  ..    ",
"     . . .  ..   .....  ................  .....   ..  . . .     ",
"      .      ........ ...................  ........      .      ",
"               .......   ..............   .......               ",
"     . .        ......    ............    ......        . .     ",
"       ..       ......   .. ........ ..   ......       ..       ",
"        ..      ..  .  ....  ......  ....  .  ..      ..        ",
"       .                 ..  ......  ..               . .       ",
"     . ....       .          ......          .       .... .     ",
"     .               .     ..........     .  .            .     ",
"       .          ..       ..........       ..          .       ",
"       .         . ..     ............     .. .         .       ",
" . ..  ..                 . ........ .                  .  .. . ",
"     .                      ........                      .     ",
"..      . .                 ........                 . .       .",
" . .   ..         ..      ............      ..         ..   . . ",
".  ..         .. .        ............        . ..     ..  ..  .",
"      ... .    ..  .    .  ..........  .    .  ..    . ..       ",
" .  .   .      ..          ..........          ..      .   .  . ",
"        .        ..       ...........        ..        .        ",
"  .    ...      ...         ........      .  ...      ...    .  ",
"         ..     ..          ........           .     ..         ",
"        .        .           ......           .        .        ",
".      ...     .  . .        ......        . .  .     ...      .",
" .      .  .   .   .   .     ......         .   .   .  .      . ",
" .     .           .        ........        .           .     . ",
"  .                   .     ........     .                   .  "
};
