/* XPM */
static char *b437e47b53994539efd307e0c8e39b54Iip2PhmxxWNnTjmb[] = {
/* columns rows colors chars-per-pixel */
"64 64 199 2 ",
"   c #2EB082",
".  c #36393D",
"X  c #3A3C3E",
"o  c #433E3E",
"O  c #4D3F3B",
"+  c #45403F",
"@  c #4E403C",
"#  c #55423B",
"$  c #6C4A3A",
"%  c #3C3E41",
"&  c #3E4144",
"*  c #424243",
"=  c #4C4543",
"-  c #454649",
";  c #44494E",
":  c #484B4D",
">  c #534743",
",  c #5D4C45",
"<  c #564844",
"1  c #5D524E",
"2  c #454A50",
"3  c #494E54",
"4  c #4B5056",
"5  c #4E5259",
"6  c #50555C",
"7  c #624E46",
"8  c #6D5347",
"9  c #6B5348",
"0  c #645047",
"q  c #715549",
"w  c #75594C",
"e  c #7C5B4B",
"r  c #6A615E",
"t  c #646668",
"y  c #6C6E71",
"u  c #797676",
"i  c #6F7073",
"p  c #8A4D32",
"a  c #8C543B",
"s  c #885238",
"d  c #98583A",
"f  c #845E4C",
"g  c #8F5941",
"h  c #9D5E41",
"j  c #925C43",
"k  c #A05F41",
"l  c #8D624E",
"z  c #94644D",
"x  c #9E6449",
"c  c #926651",
"v  c #996856",
"b  c #A16245",
"n  c #A1664A",
"m  c #A5694D",
"M  c #AB6B4E",
"N  c #AA6746",
"B  c #B16E4E",
"V  c #A46C52",
"C  c #AB6E52",
"Z  c #B16F50",
"A  c #AD7155",
"S  c #AC7358",
"D  c #B47354",
"F  c #BB7656",
"G  c #BE7857",
"H  c #B27559",
"J  c #B97758",
"K  c #B6785C",
"L  c #BC7A5B",
"P  c #BE7E4E",
"I  c #987364",
"U  c #9C7373",
"Y  c #97777E",
"T  c #8E6D6D",
"R  c #AE7C6B",
"E  c #A77869",
"W  c #BB7F62",
"Q  c #C07A57",
"!  c #C17A58",
"~  c #BD815D",
"^  c #9C857E",
"/  c #BF8061",
"(  c #AD8777",
")  c #B98972",
"_  c #CD8444",
"`  c #C5844C",
"'  c #D38A4B",
"]  c #D38948",
"[  c #C68A57",
"{  c #C78C5C",
"}  c #CA8C5A",
"|  c #C78555",
" . c #D38C55",
".. c #DB9354",
"X. c #D4925D",
"o. c #DD955A",
"O. c #E19759",
"+. c #E49A5B",
"@. c #EB9E5D",
"#. c #EDA05F",
"$. c #C38668",
"%. c #C99468",
"&. c #D89966",
"*. c #CA9A7B",
"=. c #C88F73",
"-. c #E39C61",
";. c #E89F61",
":. c #D5A277",
">. c #E9A266",
",. c #EBA468",
"<. c #E1A069",
"1. c #E7AD7D",
"2. c #434595",
"3. c #434599",
"4. c #4C4E99",
"5. c #484A9A",
"6. c #4D509D",
"7. c #595A9F",
"8. c #7B6996",
"9. c #4A4CA1",
"0. c #4D51A5",
"q. c #5B5DAD",
"w. c #5557A7",
"e. c #5C5EB2",
"r. c #625DA5",
"t. c #5E60AC",
"y. c #5E60A4",
"u. c #5E61B7",
"i. c #5F62B9",
"p. c #6162AA",
"a. c #6A66A5",
"s. c #6464B4",
"d. c #6365BD",
"f. c #6866B8",
"g. c #7772AE",
"h. c #8A708E",
"j. c #888789",
"k. c #929394",
"l. c #9A9798",
"z. c #95918F",
"x. c #BA9686",
"c. c #B09B94",
"v. c #A09A9C",
"b. c #B6A19A",
"n. c #8488B8",
"m. c #9698BC",
"M. c #A9A9AE",
"N. c #B7A9A5",
"B. c #BDB3AF",
"V. c #BAB8B8",
"C. c #A7B3BF",
"Z. c #C59B83",
"A. c #C9A689",
"S. c #D5A98A",
"D. c #C3A99A",
"F. c #D3A792",
"G. c #CEB299",
"H. c #D8B399",
"J. c #E9B589",
"K. c #E6BC99",
"L. c #C9B6A8",
"P. c #DAB9A7",
"I. c #CBB6A9",
"U. c #D2C2B5",
"Y. c #C9C4BF",
"T. c #E1CCBA",
"R. c #8C98C2",
"E. c #AABCCA",
"W. c #A9B3C4",
"Q. c #B6BDC3",
"!. c #BEBED2",
"~. c #B9C1CD",
"^. c #ADC2D3",
"/. c #B2C5D5",
"(. c #BDCAD5",
"). c #BACDDC",
"_. c #BAC6D6",
"`. c #BCD0DF",
"'. c #BCD0E0",
"]. c #C8C9C8",
"[. c #D7CFC7",
"{. c #C9CAD5",
"}. c #D5D5D5",
"|. c #DDDCDC",
" X c #D6D7D8",
".X c #DAD1CB",
"XX c #E3DAD3",
"oX c #EDD9CE",
"OX c #C8D7E3",
"+X c #DCDDE0",
"@X c #D9E1E7",
"#X c #DCE9F4",
"$X c #E4E3E3",
"%X c #EAEAEA",
"&X c #E4E7EB",
"*X c #E4EDF3",
"=X c #E5F2FB",
"-X c #FBF9F9",
";X c #F5EFEB",
/* pixels */
"                                                                                                                                ",
"                                                                                                                                ",
"                                                                                                                                ",
"                                                                                                                                ",
"                                                                                                                                ",
"                                                                                                                                ",
"                                                                                                                                ",
"                                                                                                                                ",
"                                                                                                                                ",
"                                                                                                                                ",
"                                                                                                                                ",
"                                                                                                                                ",
"                                                                                                                                ",
"                                                                                                                                ",
"                                                                                                                                ",
"                                                                                                                                ",
"                                                                                                                                ",
"                                  5 6 6       6 5 5 4 4 4 4 4 4 4 4 4 4 3 3 4 4 4 5 4 5 5                                       ",
"                                4 3 3 3 4     3 2 ; ; ; ; ; ; 2 2 2 2 2 2 2 2 2 ; 2 2 2 3 4                                     ",
"                              4 ; & % & * * & & % % % % % % % % % % % % % & & & % % % % & 2 5                                   ",
"                              ; % . . X X X % % % % % % % % % % % % % % % % % % X X . . . & 2                                   ",
"                              * % . . X X X % % % % % % % % % % % % % % % % % % X X . . X & -                                   ",
"                              ; & . . X X X % % % % % % % % % % % % % % % % % % X X . . X * -                                   ",
"                                * X . X X X % % % % % % % % % % % % % % % % % % X X . . X *                                     ",
"                                * % . . X X % % % % % % % % % % % % % % % % % % X X X . % *                                     ",
"                                * % . X X X % % % % % % % % % % % % % % % % % % X X . . % -                                     ",
"                                - & X 8 l w 7 = * % % % % % % % % % % % % % * * * > = X & ;                                     ",
"                                - & X q F G J A v l f e q q q q q q q q e f c V C A 8 X & :                                     ",
"                                - * X , J F J J J F F F F G G G F J J J F J J J G J , % & ;                                     ",
"                                1 & X = D f < > < 7 7 , f ! G ! C 9 7 7 , > > , D D = X & 1                                     ",
"                              K c * . + V z w Y j.y y r f G G ! A q r t u j.u w A V * . * c K                                   ",
"                            H H z o . X z F F.-X].t y N./ G G G G $.N.t i {.;X*.F z o . + z H H                                 ",
"                            A m a O . X e F P.-Xl.. . j.$.D D D D =.z.. . k.-XF.F f X . @ d M S                                 ",
"                          S C x a # . . 8 F =.oX|.l.k.x.F d d d d G D.k.l.|.oX$.F 8 . . # d b A S                               ",
"                          S C b d $ o o f F F $.P.P.F.L m s s s a V W F.P.H.$.F F f * o $ d m A S                               ",
"                            S C b d j x D F F F F D f , = * + o * = 7 l D F F F F J V x h N D H                                 ",
"                              S A C D D D F F G D 9 % % % % % % % % % % w F G G F F F F J K K                                   ",
"                                  H H H F F F G D w 7 7 0 q l l q 7 7 7 f F G G F F G K K                                       ",
"                                      J F F F G Q F F F F G ! ! G F F F F G G G F G L                                           ",
"                                      B.x.L G G G G G G F G G G G G G G G F G G G G | H.  OX                                    ",
"                                      `.(.L.X.X.Z.b.b.c.( n h h h h h k n E c.N.b.%.o.H.OX'.(.                                  ",
"                                    ) B.'.].>.+.&.A.V.E.W.l.v s p p g I v.W.^./.V.<.@.S.(.).b.K L                               ",
"                                  L G W N.Y.>.@.+.O.&.D.E.E.C.z.I ^ M.E.^.~.L.S.<.+.+.G.).Q.W F J J L                           ",
"                                L G F F L Z.>.@.@.@.+.+.G.(././.(././.).].S.-.+.+.+.O.L./.x.D D D F J L /                       ",
"                              L G F F F F ! @.@.@.@.@.@.;.K. X@X#XOXOX[.1.@.@.+.+.O.o.B.M.H Z D D D F F J L                     ",
"                          L L G G G F F F Q +.@.@.@.>.>.#.#.K.*X=X*XK.,.@.@.@.+.+.O.&.B.( C C D D D D F F J K L                 ",
"                        K J F F F F F F F Q +.@.@.@.@.@.@.@.J.&X=X$X,.@.@.@.@.+.+.o.&.    D A D D D D D J D J H K               ",
"                      K H J F F F F F F J L ;.@.@.@.@.@.@.@.J.*X=XXX,.@.@.@.@.+.+.+.&.        A A D D D D D D D H H             ",
"                      H D D D F F F F G J   @.@.@.@.+.+.+.+.K.#X#XXX>.@.@.@.+.+.+.-.          A A C M Z Z Z Z C C S S           ",
"                    S A C D D D F F F G D   ..' ' ' ' ] ] ' D.).`.].X.....O.+.+.+.-.          m A C M M M M M M M C S           ",
"                    S C M Z D D D F F F B   | ] ] ] _ _ _ ` V././.Q.| _ _ _ ] ]  .X.          b m M M M M m m m n V S           ",
"                    S C M M Z D D F F F N T h.R R R E U U Y n.R.R.m.( P ` _ _ _ ]  .            n m m m n n n n m V S           ",
"                    S C C M C D D J F B v a.d.f.f.f.s.e.q.q.q.q.q.t.p.a.8.h.U R ~ R             x n V m n n n m V V             ",
"                      S A A A D D J F I a.d.d.d.i.u.e.q.q.q.t.t.q.q.q.q.e.e.u.f.r.w.w.                V V m V V                 ",
"                          S S D D J   0.0.q.u.i.e.e.q.q.q.y.        t.q.q.e.e.w.9.9.g.&X%X%X              S                     ",
"                                )   p.9.5.5.9.w.q.q.q.t.            p.t.q.q.9.3.3.0.!.%X%X$XS.X.                                ",
"                          U. X@X$X$X{.n.6.3.3.3.4.w.p.                p.q.6.2.2.2.n.$X$X$XT.&.X.                                ",
"                        %.%.G..X|.+X$X+XW.a.3.2.3.6.                      4.5.2.7.~.$X$X|.S.}                                   ",
"                          } } %.I.}.|.|.|.}.m.y.4.                          4.4.m.|.|.|.U.} }                                   ",
"                              } } *.I.}. X}.}.~.                                {.}.}.}.*.}                                     ",
"                                { [ } A.U.}.}.                                    }.}.I.{ }                                     ",
"                                    [ [ %.G.                                        [.*.[                                       ",
"                                        {                                           I.%.{                                       ",
"                                                                                                                                "
};
