/* XPM */
static char *_a771a2eb76a4b88b8137c98040adea7p6DJwSOxdeiq0Y75[] = {
/* columns rows colors chars-per-pixel */
"64 64 256 2 ",
"   c #47704C",
".  c #2B1D1B",
"X  c #453E3D",
"o  c #635E5A",
"O  c #453D3B",
"+  c #5E5454",
"@  c #2B261C",
"#  c #767272",
"$  c #9BCEC7",
"%  c #8A746C",
"&  c #524E49",
"*  c #514140",
"=  c #5C291B",
"-  c #443432",
";  c #201710",
":  c #3C2925",
">  c #231311",
",  c #2D2419",
"<  c #302118",
"1  c None",
"2  c #574745",
"3  c #372D2A",
"4  c #241B13",
"5  c #352927",
"6  c #2A2524",
"7  c #321C18",
"8  c #372F2B",
"9  c #372E2C",
"0  c #20100D",
"q  c #241B13",
"w  c #271714",
"e  c #61554A",
"r  c #4B3932",
"t  c #2F2422",
"y  c #643B33",
"u  c #3A170E",
"i  c #744D46",
"p  c #5F544F",
"a  c #57524A",
"s  c #915B58",
"d  c #65322C",
"f  c #302B22",
"g  c #97554A",
"h  c #2B0D0A",
"j  c #40342C",
"k  c #5C372F",
"l  c #2C1A1A",
"z  c #2F1F21",
"x  c #321817",
"c  c #421B17",
"v  c #61342F",
"b  c #321B12",
"n  c #AB7974",
"m  c #4A3939",
"M  c #865B51",
"N  c #5A2E23",
"B  c #3D170E",
"V  c #362B28",
"C  c #4D130A",
"Z  c #1E140F",
"A  c #5E251A",
"S  c #3C0F06",
"D  c #35211C",
"F  c #864C42",
"G  c #AB605C",
"H  c #4B281F",
"J  c #1F0E0A",
"K  c #4F463C",
"L  c #825C57",
"P  c #3B3228",
"I  c #7C443D",
"U  c #7F4E43",
"Y  c #262920",
"T  c #7A4C41",
"R  c #623B33",
"E  c #310A05",
"W  c #2D2419",
"Q  c #39362A",
"!  c #985D51",
"~  c #49281D",
"^  c #AF5B5B",
"/  c #4F3C36",
"(  c #54372D",
")  c #673830",
"_  c #1D1511",
"`  c #552016",
"'  c #5C3839",
"]  c #330F09",
"[  c #684134",
"{  c #AA513F",
"}  c #4E2720",
"|  c #865549",
" . c #97514C",
".. c #8D4736",
"X. c #5B2016",
"o. c #866660",
"O. c #41261F",
"+. c #2E291E",
"@. c #272115",
"#. c #782C1A",
"$. c #733B31",
"%. c #5E493E",
"&. c #874F3B",
"*. c #45261A",
"=. c #3C2120",
"-. c #824B3C",
";. c #A04C3C",
":. c #89463B",
">. c #9E4D3A",
",. c #390913",
"<. c #211509",
"1. c #392410",
"2. c #300905",
"3. c #2E1F13",
"4. c #545344",
"5. c #484034",
"6. c #2F301F",
"7. c #350903",
"8. c #420D02",
"9. c #2E2419",
"0. c #29210E",
"q. c #201B0C",
"w. c #260C04",
"e. c #401D0F",
"r. c #2C2514",
"t. c #2C0A04",
"y. c #281C0F",
"u. c #4F4439",
"i. c #332F20",
"p. c #25160D",
"a. c #585241",
"s. c #4F4A3D",
"d. c #585547",
"f. c #321309",
"g. c #2F1B0E",
"h. c #A4492F",
"j. c #472F22",
"k. c #3A2316",
"l. c #1D0F05",
"z. c #292717",
"x. c #3A3928",
"c. c #6F3424",
"v. c #515042",
"b. c #6A1D05",
"n. c #481F11",
"m. c #4A473C",
"M. c #1F0602",
"N. c #742F1E",
"B. c #602410",
"V. c #413D2F",
"C. c #482419",
"Z. c #332412",
"A. c #826455",
"S. c #6D2617",
"D. c #4A3324",
"F. c #563F2F",
"G. c #605E4F",
"H. c #792A15",
"J. c #3E3929",
"K. c #413327",
"L. c #4E1D10",
"P. c #2C2C1E",
"I. c #51291C",
"U. c #964430",
"Y. c #220C07",
"T. c #494438",
"R. c #471A0C",
"E. c #342817",
"W. c #5C1E12",
"Q. c #554838",
"!. c #653D30",
"~. c #22220F",
"^. c #A64D37",
"/. c #AC5138",
"(. c #A04A35",
"). c #331A0A",
"_. c #621B07",
"`. c #633425",
"'. c #371C11",
"]. c #5E1C05",
"[. c #544F46",
"{. c #622B23",
"}. c #373124",
"|. c #501303",
" X c #651F08",
".X c #88331E",
"XX c #813018",
"oX c #984738",
"OX c #391208",
"+X c #31281D",
"@X c #3A291F",
"#X c #612318",
"$X c #545849",
"%X c #571F18",
"&X c #574237",
"*X c #5B3728",
"=X c #5A2B21",
"-X c #541D0D",
";X c #8D4835",
":X c #703B2C",
">X c #505444",
",X c #43170C",
"<X c #434436",
"1X c #6E2C20",
"2X c #642C18",
"3X c #432621",
"4X c #9E462C",
"5X c #3F2410",
"6X c #5A2718",
"7X c #3F3021",
"8X c #AA4A31",
"9X c #7E4334",
"0X c #631E11",
"qX c #191305",
"wX c #3B0A02",
"eX c #8F3A23",
"rX c #656658",
"tX c #683828",
"yX c #655B4D",
"uX c #823624",
"iX c #595A4C",
"pX c #8B4B3F",
"aX c #581708",
"sX c #B35642",
"dX c #442F19",
"fX c #6E210C",
"gX c #512511",
"hX c #6C5042",
"jX c #B35C4A",
"kX c #965146",
"lX c #625246",
"zX c #573221",
"xX c #180704",
"cX c #7A3521",
"vX c #4F402D",
"bX c #38311B",
"nX c #624B3A",
"mX c #494F3D",
"MX c #8D3F2F",
"NX c #873315",
"BX c #493A2E",
"VX c #7A2E1D",
"CX c #A15C4D",
"ZX c #6A6353",
"AX c #725A46",
"SX c #6F4835",
"DX c #6F5C4D",
"FX c #785949",
"GX c #CB7363",
"HX c #774A45",
"JX c #C1624E",
"KX c #5A4C40",
"LX c #6C503B",
"PX c #7D7460",
"IX c #A56A5E",
"UX c #47704C",
/* pixels */
"                  m p                                                                                     p m                   ",
"                * ~ i                                                                                     i ~ *                 ",
"              $ H d n                                                                                     n d H $               ",
"              V ` -.#                                                                                     # :.` V               ",
"            $ x S.F                                                                                         F S.x $             ",
"            - ] .X|                                                                                         | uXB -             ",
"            l |.(.M                                                                                         M (.aXl             ",
"          O h S.{ ^                                                                                         o.{ S.h O           ",
"          6 w.uX;.i                                         # 5 5 #                                         i >.uXw.6           ",
"        + > w.cX..L                                         5 , , 5                                         L ..N.t.> +         ",
"        - 0 0.dX( #                                       + 7 k.k.7 +                                       # ( j.3.0 -         ",
"        z xXx.a.a                                       X m u j.j.u 9 X                                     $ a 4.J.M.z         ",
"      + > Y.5.$Xa                                     + 7 w OXD.D.OX0 7 +                                   $ a d.5.l.> +       ",
"      - 0 7.D.>Xa                                     X 4 Y.OXvXF.8.Y.4 X                                   $ a a.D.t.0 -       ",
"      t 7.W.gXD.K                                     9 w Y.8.A.A.8.w.p.9         $ $                       $ K D.gX0X2.t       ",
"    $ 7 8.eX^.oXF $                         % s L     6 p.w.C A.A.R.w.p.6     L s n $                       $ F (.^.eX8.7 $     ",
"    O h aX(.sXjXg $                         G ! U     l w M.C.ZXDXC.M.w l     U ! G                         $ g jXsXh.aXh O     ",
"    3 E fX^.sXsXg $                         e &.y   X Z 1 M.7XZXZXj.M.1 ; X   y &.e                         $ g sXsX^.fXE 3     ",
"    l wXH.(.^.^.g $                         P Q.Q # t k.I.t.u.A.A.u.t.I.'.z # Q Q.P                         $ g ^.^.(.H.8.l     ",
"  + > 8._.B.2XH.$.$                         8 <XY o > e.R.OXa.CXCXlXf.R.,X7 o Y <X8                         $ $.XX2XB._.8.> +   ",
"  O h 0XW.3.E.;XN -                         8 m.Q r u n.OXZ.ZXjXjXDXZ.OXL., r Q T.P                         - N oXE.3.W.W.h O   ",
"  : S XXS.1.dXCX6Xv                       & O.*X*.b I.2Xt.}.A.jXjXA.@Xt.2XI.b *.*XO.o                       H I.CXbX1.S.XXS :   ",
"  t 8..XVX1.k.{.R.= %                     * N c.X.=X`.-Xw.<XhXh.(.hX5.w.-X`.=X6Xc.N p                     % = e.2XE.1.H.NX8.6   ",
"  x |.eXVX1.i.K.).= %                     j A uX#X=X!.f.E.rXAX8X^.AXrX+XOX*X6X#XuXA j                     % = 0.j.i.5XN.eX8.x   ",
"% > |.4XN.1.6.<X0.= %                     . %X1X#X{.'.<.u.rXnXU.MXnXrXs.1 '.{.#X1XL..                     % = ~.T.i.5Xc.U.aX> % ",
"2 q ].4XN.1.i.m.Z.= %                     . X.cX#X%Xl.~.G.>X~.p.1 y.a.G.0.Y.-X0XcXX..                     % = r.m.6.1.N.4X_.q 2 ",
"- ]  X4XN.1.i.s.E.~ %                     . L.#X%XI.l.z.rXT.@XlXlX@XQ.ZXr.qXC.%X#XL..                     % ~ i.s.6.1.N.h.b.] - ",
"5 E  Xh.N.1.i.4.x.< +                     . C 1X%X,Xl.r.G.&X`.PXPX*X&XyXr.qX,X%XS.C .                     + < J.v.6.1.VXh.b.E 9 ",
"z 2. X4X1X1.6.4.x.< +                     . 0XH.0Xe.qX<.u.<XbXrXrXbX5.T.<.l.R.#XH.0X.                     + < J.v.P.1.S.4X X2.z ",
"x 2.].eXW.1.i.4.x.< +                     5 pXGXc.t.l.<.s.5.zXA.A.=XvXm.<.Y.7.c.GXpX.                     + < J.v.6.1.W.eX_.2.x ",
"7 wXH./.6X1.i.4.J.W O                     . c {.n.t.Y.<.s.&X.XJXJX.XF.m.<.l.2.n.{.c .                     X W V.d.6.1.X./.H.wX7 ",
"=.8.XX/.B.5Xi.4.u.@.9                     . J E.0.M.Y.<.s.&XB.;X;XB.Q.s.p.l.M.z.E.J .                     9 @.T.d.6.1.#X/.XX8.=.",
"3X8.XX/.B.1.6.m.s.}.@ O                   X ; }.r.M.Y.<.T.KXe.n.n.e.a.m.<.l.M.z.}.; X                   O @ }.s.u.6.Z.B./.NX8.3X",
"c 8.NX/.B.1.6.K.5.T.z.f o                 + > 7Xr.M.Y.<.T.yXF.&XF.F.G.m.<.qXM.9.7X> +                 o f 9.m.5.K.6.1.B./.NX8.3X",
"c ,X#.U.-XZ.6.u.&X$XV.z.P %               & _ 7Xz.xXl.<.m.rX$XiX$Xd.G.u.p.l.xXr.bX_ &               % P z.V.iXu.s.+XZ.-XU.#.S D ",
"e e M U B Z.6.nX&XiX[.}.+X8 O             6 J '.k.M.l.p.u.G.a.a.4.4.G.u.q.l.M.5X1.J 9             O 8 +X}.4.iXu.lX@XE.B U M ' e ",
"      # < Z.K.HXBXiXd.[.V.P.@ 3 #       O < 2.B.;X{.1 qXj.!.D.bX3XJ.!.K.qX1 =X;X X2.Y 2       # 3 @ P.V.v.d.iXBXHXD.r.< #       ",
"      # 9 P T !.5.d.d.4.G.Q.9., f j o % z <.wXb.8XoXn.g.!.9X*XdXI.zX9X!.).L.oX8XfX7.<.t % o j f , 9.s.G.4.d.>X5.!.T P m #       ",
"          n  .F.<Xi.x.mXa.hXF.bX+X, @ @ , y.7.b.8XU.L.n.:X:XtXR.e.c.:X:Xn.L.oXh.b.7.y., < @ , +X6.&XhXd.m.x.P.5.vX .n           ",
"          G I s.J.~.q.z.j.IXnX4.V.}.z.z.r.3.7.b.h.MXR.-XcXSX1XR.e.1X9Xc.L.e.MXh.fX7.3.r.~.9.6.5.v.nXIXK.9.q.~.x.mXI G           ",
"          ^ ) s.x.0.q.q.`.kXK.$XG.d.vX}.P.3.7. XXX`.e.gXtXAX{.L.R.=XFX*XL.e.`.N. Xt.3.+Xi.F.$XG.d.7XkX`.p.q.0.x.>X) ^           ",
"          s *X4.J., q b kXI.y.V.$XK.=X&XmXV.t.|.#Xv.c e.dXLXC.R.e.dXhXj.n.e.KX6X|.w.V.s.u.{.BX$XV.0.I.kXb q , x.4.*Xs           ",
"          s %.>XJ.< X [ pXw q.~.x.n.S.Q.>XT.7.B.tXmXc f.5X!.'.).).Z.:XC.f.Z.[.:Xb.wX5.v.Q.S.n.}.~.p.w pX[ X @ x.[.%.M           ",
"          o.K v.K.Y * T [ t Z q.p.W.H.m.>Xu.wX Xc.s.'.w.D.hXk.q.f.E.LXK.w.g.s.c.b.wX5.v.Q.H.-Xy.q.4 t R T * < x.[.K o.          ",
"          # p e / : y I j   3 Z f.H.2X<X4.T.wXb.c.Q.g.<.}.F.E.y.p.9.vXi.qXg.Q.c.b.7.5.v.<X2XN.<.4 3   j I y : 3 e p %           ",
"                  + R k #     5 u cXe.P.v.5.7.].2XC.f.<.3XtXZ.p.<.k.:XC.<.f.C.S._.7.T.v.P.5XuXu 5     # k R +                   ",
"                  ' d -       + = tX).~.V.5.w.|.fXW.7.f.tX;XzXg.g.=X9XtX1 2.0XfX|.t.T.V.~.0.c.= %       - d '                   ",
"                # H v $       2 d D.p.q.r.K.t.].4XU.OXf.2XN.%XC.C.6XN.{.f.OXU.4XB.2.J.r.q.q.D.d 2       $ v k $                 ",
"                O } i         : N r ; q.0.r.2.b.h.U.1 y.,XI.).3X3Xf.I.'.p.p.;X^.b.t.z.0.q.q r ) :         X } O                 ",
"                X /           r = + 6 q.0.3.2. Xh.oXf.9.C.pX3.6.@X'.pXC.D f.U.8X X2.3.0.w 6 + R y           / O                 ",
"                # #         $ k y   O ; y.3.2.].h.oXt.g.0.gXg.6.i.y.gX3.w t.U.h._.2.3.y.; 2   y k $         # #                 ",
"                            L k i   & ; y.3.2.]..XVXw.g.1.9X).P.+X0.;Xk.y.w.XXXXaXt.3.y.; 2   i ( L                             ",
"                            * m     2 ; <.3.2.|..X.X).q.L.MX).9.3.g.eXn.1 )..X.X|.2.y.<.; &     r p                             ",
"                            L &     & q y.3.2.].^.(.gXj.g.`.'.@X3X3.*XZ.j.6X(./.].7.3.y.q &     2 o                             ",
"                                    & +.z.9.7._./.(.6X7Xz.BX1.9XMXk.V.9.7X6Xh.8X_.2.3.r.+.&       $                             ",
"                                    o f @ W 2.0X(.oXL.E.k.!.zX1X1XzX!.c E.n.oX8X].t.W @ f o                                     ",
"                                      % % * v A ;X! lX>XFXkXA v v A kXFXa.lX! U.` r * % %                                       ",
"                                        $   - u :XDX4.mXDX9XC : : C SXyXv.4.AXc.B O                                             ",
"                                            V u ,X+X9.D @Xe.S : : S e.P.D D +X,XB O                                             ",
"                                            V 0 k.a.4.4.d.j.1 : : 1 dXd.d.a.a.k.Z X                                             ",
"                                            * ; 0.a.[.[.[.+XZ V V Z i.[.[.a.a.3._ O                                             ",
"                                            # * ; k.j.D.k.0 3 # # 3 0 @Xj.j.9.q * $                                             ",
"                                              % @ '.!.SX5X4 X     X 4 5XSX!.Z.@ +                                               ",
"                                              + @ 9.yXA.i.4 X     X 4 E.A.yXZ.@ +                                               "
};
