/* XPM */
static char *_80146a6dbf943caf06300984a1c8ea5ebyu2jPLibaPHEug[] = {
/* columns rows colors chars-per-pixel */
"64 64 154 2 ",
"   c #00000001",
".  c #8E5E40",
"X  c #D8A781",
"o  c #CC946A",
"O  c #BB8258",
"+  c #B98662",
"@  c #D3996E",
"#  c #BC8761",
"$  c #B78764",
"%  c #D7A47C",
"&  c #906448",
"*  c #D8A075",
"=  c #AE7A57",
"-  c #9F6E4E",
";  c #BB8864",
":  c #C79068",
">  c #74482F",
",  c #C5906A",
"<  c #71452C",
"1  c #BB8258",
"2  c #8E5F42",
"3  c #B37243",
"4  c #7E5237",
"5  c #9F6D4C",
"6  c #E3AF84",
"7  c #D0976C",
"8  c #A17253",
"9  c #B67444",
"0  c #BF8154",
"q  c #815438",
"w  c #AC724A",
"e  c #8C5D40",
"r  c #8A5B3D",
"t  c #98694A",
"y  c #AB7048",
"u  c #D49E75",
"i  c #E8B68C",
"p  c #AF7F5D",
"a  c #8A5C40",
"s  c #DBA77D",
"d  c None",
"f  c #A77655",
"g  c #BF7D4E",
"h  c #B78764",
"j  c #BE7C4D",
"k  c #B07953",
"l  c #9B6C4D",
"z  c #926346",
"x  c #8B5C3E",
"c  c #BD7E51",
"v  c #C88C5F",
"b  c #E1AE84",
"n  c #906245",
"m  c #D49A6E",
"M  c #906143",
"N  c #B7835F",
"B  c #926346",
"V  c #EBBA8F",
"C  c #D59B70",
"Z  c #956547",
"A  c #8B5C3F",
"S  c #A77655",
"D  c #976849",
"F  c #A37353",
"G  c #AD7B58",
"H  c #DAA67C",
"J  c #D2986D",
"K  c #86583C",
"L  c #A97857",
"P  c #A17151",
"I  c #8D5E41",
"U  c #9A6A4C",
"Y  c #99694B",
"T  c #9F6F50",
"R  c #E5B388",
"E  c #B48461",
"W  c #B2815F",
"Q  c #CA9269",
"!  c #BB8864",
"~  c #CD9064",
"^  c #70452C",
"/  c #A47555",
"(  c #AA7A5A",
")  c #9C6C4D",
"_  c #7D5035",
"`  c #C28D67",
"'  c #BF8C67",
"]  c #9E6E4E",
"[  c #B98661",
"{  c #E9B88C",
"}  c #B3805C",
"|  c #CF976D",
" . c #AC7D5C",
".. c #D8A176",
"X. c #84563A",
"o. c #AF805E",
"O. c #C68759",
"+. c #DAA479",
"@. c #E2AD82",
"#. c #B17E5B",
"$. c #E8B58A",
"%. c #B78663",
"&. c #D69D72",
"*. c #CF9469",
"=. c #D19A70",
"-. c #815438",
";. c #75492F",
":. c #D89F74",
">. c #C2906B",
",. c #CA8D60",
"<. c #BC8B67",
"1. c #AF7D5B",
"2. c #B37141",
"3. c #DEAA7F",
"4. c #DFAD83",
"5. c #C48A60",
"6. c #D49D73",
"7. c #BA835C",
"8. c #C7936C",
"9. c #AD7853",
"0. c #C99670",
"q. c #DBA980",
"w. c #D1966A",
"e. c #BF8963",
"r. c #C69069",
"t. c #CB956C",
"y. c #CD9B73",
"u. c #996645",
"i. c #784C32",
"p. c #B78059",
"a. c #E1B086",
"s. c #A87450",
"d. c #D3A078",
"f. c #C38355",
"g. c #D19D75",
"h. c #936242",
"j. c #BA794A",
"k. c #C88F65",
"l. c #A5704C",
"z. c #E4B085",
"x. c #B47950",
"c. c #D5A37B",
"v. c #C88A5D",
"b. c #9C6A49",
"n. c #A16D4B",
"m. c #BD7D50",
"M. c #BE8155",
"N. c #C18559",
"B. c #B17C57",
"V. c #905C3A",
"C. c #9E6843",
"Z. c #AD734C",
"A. c #99633F",
"S. c #A76C44",
/* pixels */
"                                                                                                                                ",
"                                                                                                                                ",
"                                                                                                                                ",
"                                                                                                                                ",
"                                                                                                                                ",
"                                                                                                                                ",
"                                                                                                                                ",
"                                                                                                                                ",
"                                                                                                                                ",
"    # # # # # # # # # # # # # # # # # # # # # # # # # # # # # # # # # # # # # # # # # # # # # # # # # # # # # # # # # # # #     ",
"  v 0 0 0 = e e e e 5 5 5 5 = = = = @ @ @ , = 0 @ * * * * * @ @ , @ @ @ @ @ * @ @ @ @ , , * * 6 6 6 6 * = , @ 6 * , = 5 = c $   ",
"  1 m.m.m.Z.I K A B Z Y D ) F / P e.C C &.r.p.,.~ w.m m C &.J m <.t.&.&...+.6.:.C m m | 0.@.R V V V { 4.<...3.@.+.r.G 2.j.j +   ",
"  w x.m.x.S.A K A M Y D B D ) T ] 7.J J m Q x.O.w.C m J m m J *.E y.H 6.+.z.:.....m =.r.! 3.z.{ { V R y.o.=.+.@...| G 2.j.j +   ",
"  . u.u.I I Y B A A I M Z ) ] ] ] ] ] G #.} #.B.} } #.} } #.1.G E ' ! #.#.%.N 1.#.N G  .E W W E <.>.' E >.>.8.>.[ 1.#.s.s.k +   ",
"  1 M.M.7.k.t.=.! F G #.' r.=.q.H r.1.y.R R $.R a.4.0.e.[ ! e.k.6.&.J | | | Q [ E g.g.4.R a.c.0.>.c.q.a.z.q.H c.y.d.H c.0.; %   ",
"  1 f.O.~ C :.+.[ T ! | y.g.6.c.c.:.t.y.V V V V V V +.! 5.~ v.,.m &.m m C C C Q <.@.V V { V V R y.$.V $.z.$.V $.{ V V V c.o %   ",
"  w G B.N e.e.G B D L ! ' ` %.} ' g.' ' H 4.a.a.a.R =.1.N ` ! ! Q | | | Q r.t.` ' +.4.a.a.R 4.H >.g.3.$.$.$.$.R $.{ $.4.! ; %   ",
"  . a I B M K A B D I A I M M b.s.o. . .( L S ( 1.N N ! W G G L 1.} } #.G ( 1.%.<.N } [ ' [ E %.<.` ! ' <.<.! [ ! ! o.S ( p +   ",
"  - P D ( F T T F  .s.l.Z.P F Q @.R R a.a.4.<.[ | | m m m m &.0.| ..+.H 6.' g.R @.6.k.,.v.k.r.g.q.6.t.r.r.t.` ' d.t.5.5.r.o %   ",
"  1 s.h.T P P l.] P s.2.2.9.F g.$.{ V { V V 0.` m m C m J C &.0.y.R $.{ H %.g.R { z.C ~ ,.*.g.@.R :.m C ..3.&.e.| C w.w.J o %   ",
"  - ] B ) T P T b.Y ] s.9.G P g.4.q.q.3.4.4.>.! t.=.=.J J | J e.` 4.H =.`  .c.R c.| | O.O.~ 0.y.:.m m C :...C ` 8.&.C =.*.o %   ",
"  . K K A Z P L  .S L G P D ( L ( E E [ ! %.E <.G 9.9.} N 1.N N 8.` N B.L } ' e.N W W } N ! E W } } N N N [ E W [ [ ! ! ! ; +   ",
"  - T M Z.~ m +.@.+.+.:.+.o.H H ..H +.H R z.@.y.5.N.N.v.~ *.| C &.:.8.` N.~ ~ ~ ,.5.5.t.| ` <.0.8.Q =.d.g.g.y.<.>.q.R R R i %   ",
"  1 W Z x.,.r.0.6.=.J w.@.N t.&.m C m &.3.3...<.x.f.,.v.O.O.,.w.J :.| r.*.*.*.J ,.,.~ w.| %.q.z...@.R { { z.@.y.H { { { V i %   ",
"  1 ] A M ] Y T P S 9.e.' ] G Q r.r.Q | J 6.g.%.p.m.O.v.5.5.k.Q t.r.N e.Q *.J J *.*.*.J Q #.<.>.y.q.z.R a.4.4.8.0.H c.d.c.s %   ",
"  . q I M A A K K X.X.A I Z ) U D D ) L S } G [ [ N p.N N G G G W W  .o.( W N N #.#.N [ W [ L / ( 1.E E E o.W ! <.1.L S S f +   ",
"  . z n.j.j.l.s.9.Y Z U F ( W W o./ F 1.` J m &.&.&.m &.&.8.g.q.a.R R 4.a.R R a.0.d.4.3.3.H d.' >.H q.q.0.E r.6.3.3.=.| =.o %   ",
"  . a D l.S.S.l.s.Z Y P ( ( L  . .( S P 5.m m C C C m C ..! 0.V V V V V V V V 4.>.@.$.$.$.R z.0.0.{ { V H E r.| +...C C &.o %   ",
"  . q K A A h.M M B U U ) ] F F / P P ) e.Q k.Q Q t.Q *.t.[ 0.H H d.y.H 4.H y.! [ d.H d.d.| 0.o.%.d.4.a.c.E %.' t.r.t.Q Q ; %   ",
"  . q -.X.K I K K Z ) B B B B B M M Z S 1.S S F L o.#.E W W o.S G S S L G S / / ( P F T T P F 1.8.1./ G  .%.} G 1.G } #.L p %   ",
"  w Z Z n.l./ F P U P F S / S L P S 8.H 3.H +.>.c.$.$.{ { a.<.! =.J m =.=.k.Q =.` %.0.d.y.g.d.q.4.3.d.0.` k.J J m m &.&.=.o %   ",
"  - Z Z n.S S F D F ( P T P / L W 1.3.z.R R z.8.q.V V V V V 0.[ ~ | w.m m J w.C | ! c.R z.@.3.@.z.z.$.H %.Q &.m :.+.3...6.; +   ",
"  . a A u.P P l.K B D D Y U ) T / T ' | 8.0.c.L >.q.H q.q.q.>.L 7.' Q J J C C C C N <.q.3.H ..H 3...y.[ o.e.*.*.J :.+.+.Q p %   ",
"  > < ;.i.i._ _ -.X.-.-.-.X.X.A A D Y Y Z ) F ] F / / S F P s.#.G G B.G G B.N } #.(  .G S S G #.! G P T ( T ) ] F F S L F f +   ",
"  > < ^ ^ _ i.i.I Y U ) F P P ( N } F ` %.' 0.8.8.' ' [  . .5.~ *.~ ` / x.,.C 6.6.C | ,.p.8.y.' >.>.W U B A I D ) F ( T L ; %   ",
"  > < ^ ^ _ ;._ u.) T / ( S ( E r.! Y 1.%.%.` >.>. .( T U 7.~ v.O.O.5.P M.w.&.:.:.C &.~ p.0.g.! %.E / T B A A D D F  .U ( o %   ",
"  > < ^ ^ ^ ^ X.A M D T ] D ) S ( Z B ( E %.e.E E ( F Z u.M.5.M.m.m.9.D } Q k.k.5.5.Q k.9.<.0.<.' ( ] ) B M M B B U D M 1.; +   ",
"  > < ;.i._ X.Z Z A _ _ -._ _ -.-.X.I I A M D D ) ] ) T F T D b.n.b.b.L L F ] F ) Y D Y F  .F P P ) ( ) B I I B U Y D S %.p +   ",
"  . q M Z.N.5.k.O.N.I M D B Z U U ) ) Y L ` d.+.+.4.R @.+...! N 6.6.C :...6.6.0./ /  .W  .W  .o.5.5.5.5.5.5.5.1.<.d.q.4.a.b %   ",
"  . K Z.f.~ J w.,.,.h.M u.D Y ) ] l.b.M W =.:.+.H 3.@.@...6.N B.:.:.m C &.C :.Q L E <.<.W  .T p.O.O.v.v.v.v.,.p.c.{ V V { i %   ",
"  . _ u.m.,.~ ~ ~ Q u.A M Y Y Y b.C.h.A 1.=.6.+.6.Q ` 8.` E S [ Q | *.| J C C N P o.E W  .U B B.[ N.f.f.f.f.O.S 0.z.{ V V i %   ",
"  > < i.X.I Z Z b.b.K -.X.I K K K K Z B I D B Z M A A A M u.T D M Z n.U Z Z D Y U B Z Z B M B B Z U n.n.l.n.u.M ) P  .E E ; %   ",
"  . K _ M M Z T L Z.9.L L E ( o.( P N.M.k.e.7.p.9.n.u.2.2.j.x.x.x.M.M.x.] U W d.g.y.<.Y Z Z.B.S / F L / } N N } / N [ e.k.o %   ",
"  - z ;.A Z ) T L 9.9.E %.<.%.E ( U M.m.v.,.~ ~ 5.S u.j.m.m.j.j.m.,.f.f.x.D 0.{ $.{ V o.x.f.N.N E E %.%.r.| C t.) #.<.8.C o %   ",
"  - a ^ _ K B Y F T P  .o.o.E o./ M 9.m.f.,.,.k.r.[ h.M.O.~ v.~ w.~ O.O.N.Y ! @.$.V { o.9.7.E W  . .W E E ' =.` Z U o.%.r.o %   ",
"  > i.;.;.^ ;.i._ i.i.X.K K K X.-.X.K M u.b.b.] ) M K M D l.s.l.n.b.D b.Z A M T L ( S Y I D U Z M M M M M U F Z I B I M Z l +   ",
"  w d A.A ^ i.X.X.V.h.Z X.;.;.i._ _ i.;.i.;.i.A B B T T u.B.7.p.p.B.9.9.U N W / / / / L T T T M ] p.7.p.#.N 7.7.[ [ D Z l.f +   ",
"  w 2.2.S._ I ] S.2.j.p.X.i.-.-.;.;.;.i.-.i.-.U A X.M U l.,.*.O.f.f.O.O.S >.<. .( o.o.E E W 1.U e.J J J J C m m J C } S ~ o %   ",
"  w 2.2.S._ Y F S.S.2.Z._ ^ i.i.^ ^ ^ ^ ;.^ -.D M M D I C.f.O.f.O.N.f.M.Z / L / / ( o.o.o.o. .Z 7.~ ~ w.J J J w.*.w.9.G w.o %   ",
"  . d d V.;.K M V.A V.A -.;.^ ^ ^ ^ ^ ^ ^ ^ -.B B B Z X.A h.h.h.D D u.b.I A M M M B B D U D B K n.Z.x.B.s.p.p.p.7.p.u.D 9.k +   ",
"  . q _ _ _ _ ;.i._ _ _ K K X.-.-.X._ _ V.A.d A.V.-.-.M P U B Y I B L 1.} N <.>.W G T I K A D P T u.h.h.C.C.C.C.A.A.u.u.M n +   ",
"  . A A A I -.;.X.K K K K I B Z Y A A A.2.2.2.2.2.V.A E >.t.` E P ] t.m m &.+.$.{ 3...! P ' 6.=.+.*.x.Z.j.j.2.2.2.j.j.x.B l +   ",
"  - 2 r r 2 4 4 r 4 4 4 r 2 2 t 8 2 t y 3 3 3 3 3 x t : u u 7 h 8 8 : 7 7 7 7 s s u u h 8 : : : : : y y g g 9 9 9 9 9 y t 8 +   ",
"  # & & & & & & & & & & & O $ $ $ $ $ $ $ $ $ $ $ $ $ X X X X $ $ $ X X X X X X X X X $ O O O O O O O O O O O O O O O O $ $ #   ",
"                                                                                                                                ",
"                                                                                                                                ",
"                                                                                                                                ",
"                                                                                                                                ",
"                                                                                                                                ",
"                                                                                                                                ",
"                                                                                                                                ",
"                                                                                                                                ",
"                                                                                                                                ",
"                                                                                                                                "
};
