/* XPM */
static char *_272c372a90141078e5177afed464cd6[] = {
/* columns rows colors chars-per-pixel */
"64 64 16 1 ",
"  c gray20",
". c #33383B",
"X c #333D44",
"o c #33424C",
"O c #334855",
"+ c #334D5E",
"@ c #345266",
"# c #346789",
"$ c #356C91",
"% c #35729A",
"& c #3577A3",
"* c #357CAB",
"= c #3581B4",
"- c #3687BD",
"; c #419FDD",
": c #89A4A6",
/* pixels */
"::::::::::;;;;;;;;;;;;;;;;;;;;;;;;;;;;;;;;;;;;;;;;;;;;::::::::::",
"::::::::::;;;;;;;;;;;;;;;;;;;;;;;;;;;;;;;;;;;;;;;;;;;;::::::::::",
"::::::::::;;;;;;;;;;;;;;;;;;;;;;;;;;;;;;;;;;;;;;;;;;;;::::::::::",
"::::::::::;;;;;;;;;;;;;;;;;;;;;;;;;;;;;;;;;;;;;;;;;;;;::::::::::",
"::::::::::;;;;;;;;;;;;;;;;;;;;;;;;;;;;;;;;;;;;;;;;;;;;::::::::::",
"::::::::::;;;;;;;;;;;;;;;;;;;;;;;;;;;;;;;;;;;;;;;;;;;;::::::::::",
"::::::::::;;;;;;;;;;;;;;;;;;;;;;;;;;;;;;;;;;;;;;;;;;;;::::::::::",
"::::::::::;;;;;;;;;;;;;;;;;;;;;;;;;;;;;;;;;;;;;;;;;;;;::::::::::",
"::::::::::;;;;;;;;----------------------------;;;;;;;;::::::::::",
"::::::::::;;;;;;;;----------------------------;;;;;;;;::::::::::",
"::::::::::;;;;;;;;----------------------------;;;;;;;;::::::::::",
"::::::::::;;;;;;;;----------------------------;;;;;;;;::::::::::",
"::::::::::;;;;;;;;----------------------------;;;;;;;;::::::::::",
"::::::::::;;;;;;;;----------------------------;;;;;;;;::::::::::",
"::::::::::;;;;;;;;----------$@OOOO@$----------;;;;;;;;::::::::::",
"::::::::::;;;;;;;;--------&O        O&--------;;;;;;;;::::::::::",
"::::::::::;;;;;;;;-------=X          X=-------;;;;;;;;::::::::::",
"::::::::::;;;;;;;;-------+            +-------;;;;;;;;::::::::::",
"::::::::::;;;;;;;;------%              %------;;;;;;;;::::::::::",
"::::::::::;;;;;;;;------@              @------;;;;;;;;::::::::::",
"::::::::::;;;;;;;;------.              .------;;;;;;;;::::::::::",
"::::::::::;;;;;;;;------                ------;;;;;;;;::::::::::",
"::::::::::;;;;;;;;------                ------;;;;;;;;::::::::::",
"::::::::::;;;;;;;;------.              .------;;;;;;;;::::::::::",
"::::::::::;;;;;;;;------+              +------;;;;;;;;::::::::::",
"::::::::::;;;;;;;;------$              #------;;;;;;;;::::::::::",
"::::::::::;;;;;;;;-------o            o-------;;;;;;;;::::::::::",
"::::::::::;;;;;;;;-------*.          .&-------;;;;;;;;::::::::::",
"::::::::::;;;;;;;;--------*O        o*--------;;;;;;;;::::::::::",
"::::::::::;;;;;;;;----------        ----------;;;;;;;;::::::::::",
"::::::::::;;;;;;;;----------        ----------;;;;;;;;::::::::::",
"::::::::::;;;;;;;;----------        ----------;;;;;;;;::::::::::",
"::::::::::;;;;;;;;----------        ----------;;;;;;;;::::::::::",
"::::::::::;;;;;;;;----------        ----------;;;;;;;;::::::::::",
"::::::::::;;;;;;;;----------        ----------;;;;;;;;::::::::::",
"::::::::::;;;;;;;;----------        ----------;;;;;;;;::::::::::",
"::::::::::;;;;;;;;----------X      .----------;;;;;;;;::::::::::",
"::::::::::;;;;;;;;----------------------------;;;;;;;;::::::::::",
"::::::::::;;;;;;;;----------------------------;;;;;;;;::::::::::",
"::::::::::;;;;;;;;----------------------------;;;;;;;;::::::::::",
"::::::::::;;;;;;;;----------------------------;;;;;;;;::::::::::",
"::::::::::;;;;;;;;----------------------------;;;;;;;;::::::::::",
"::::::::::;;;;;;;;----------------------------;;;;;;;;::::::::::",
"::::::::::;;;;;;;;----------------------------;;;;;;;;::::::::::",
"::::::::::;;;;;;;;----------------------------;;;;;;;;::::::::::",
"::::::::::;;;;;;;;----------------------------;;;;;;;;::::::::::",
"::::::::::;;;;;;;;----------------------------;;;;;;;;::::::::::",
"::::::::::;;;;;;;;----------------------------;;;;;;;;::::::::::",
"::::::::::;;;;;;;;----------------------------;;;;;;;;::::::::::",
"::::::::::;;;;;;;;----------------------------;;;;;;;;::::::::::",
"::::::::::;;;;;;;;----------------------------;;;;;;;;::::::::::",
"::::::::::;;;;;;;;----------------------------;;;;;;;;::::::::::",
"::::::::::;;;;;;;;----------------------------;;;;;;;;::::::::::",
"::::::::::;;;;;;;;----------------------------;;;;;;;;::::::::::",
"::::::::::;;;;;;;;----------------------------;;;;;;;;::::::::::",
"::::::::::;;;;;;;;----------------------------;;;;;;;;::::::::::",
"::::::::::;;;;;;;;;;;;;;;;;;;;;;;;;;;;;;;;;;;;;;;;;;;;::::::::::",
"::::::::::;;;;;;;;;;;;;;;;;;;;;;;;;;;;;;;;;;;;;;;;;;;;::::::::::",
"::::::::::;;;;;;;;;;;;;;;;;;;;;;;;;;;;;;;;;;;;;;;;;;;;::::::::::",
"::::::::::;;;;;;;;;;;;;;;;;;;;;;;;;;;;;;;;;;;;;;;;;;;;::::::::::",
"::::::::::;;;;;;;;;;;;;;;;;;;;;;;;;;;;;;;;;;;;;;;;;;;;::::::::::",
"::::::::::;;;;;;;;;;;;;;;;;;;;;;;;;;;;;;;;;;;;;;;;;;;;::::::::::",
"::::::::::;;;;;;;;;;;;;;;;;;;;;;;;;;;;;;;;;;;;;;;;;;;;::::::::::",
"::::::::::;;;;;;;;;;;;;;;;;;;;;;;;;;;;;;;;;;;;;;;;;;;;::::::::::"
};
