/* XPM */
static char *a2013cc3b9354f97b233fb9ae8382809[] = {
/* columns rows colors chars-per-pixel */
"64 64 153 2 ",
"   c #2EB082",
".  c #373A3D",
"X  c #3A3C3E",
"o  c #423E3E",
"O  c #493F3C",
"+  c #5D463C",
"@  c #53443F",
"#  c #744E3D",
"$  c #3C3E41",
"%  c #3F4145",
"&  c #424344",
"*  c #4B4442",
"=  c #434549",
"-  c #464A4E",
";  c #524643",
":  c #464B51",
">  c #494E54",
",  c #4B5056",
"<  c #4F535A",
"1  c #51565D",
"2  c #634F47",
"3  c #6B544B",
"4  c #695147",
"5  c #78584A",
"6  c #775D51",
"7  c #87533A",
"8  c #965739",
"9  c #9B5A3B",
"0  c #985739",
"q  c #855E4C",
"w  c #8D5D47",
"e  c #8D614C",
"r  c #9B674F",
"t  c #9F6042",
"y  c #8C6350",
"u  c #9B6952",
"i  c #A56445",
"p  c #A3674B",
"a  c #A5694C",
"s  c #AA6B4E",
"d  c #A46D53",
"f  c #AD6E51",
"g  c #B16F51",
"h  c #AD7256",
"j  c #AD7459",
"k  c #B47354",
"l  c #B97655",
"z  c #BF7857",
"x  c #B37659",
"c  c #BA7758",
"v  c #B6795C",
"b  c #BC7B5C",
"n  c #BC7E61",
"m  c #B57B60",
"M  c #C07A57",
"N  c #C17A58",
"B  c #BB805E",
"V  c #BC8060",
"C  c #B8856F",
"Z  c #B98D7B",
"A  c #D28745",
"S  c #D38845",
"D  c #D38B4C",
"F  c #D88D4C",
"G  c #C58454",
"H  c #C68855",
"J  c #CD8A54",
"K  c #C78C5A",
"L  c #D38C55",
"P  c #D98F51",
"I  c #D38E5D",
"U  c #DC9457",
"Y  c #DC955B",
"T  c #E19759",
"R  c #E69B5C",
"E  c #EA9E5D",
"W  c #EDA05F",
"Q  c #C08061",
"!  c #C89061",
"~  c #D99C68",
"^  c #CC9E7E",
"/  c #E49D63",
"(  c #E59F64",
")  c #DFA778",
"_  c #D9A67B",
"`  c #EDA161",
"'  c #E1A36E",
"]  c #E8A369",
"[  c #E1A675",
"{  c #42449C",
"}  c #46489E",
"|  c #4B4DA3",
" . c #4E50A5",
".. c #5255A6",
"X. c #5F62BB",
"o. c #7A71AC",
"O. c #6C69B6",
"+. c #6366BE",
"@. c #6569BE",
"#. c #726CB2",
"$. c #6366C0",
"%. c #6669C0",
"&. c #686BC0",
"*. c #867499",
"=. c #B89789",
"-. c #B89E94",
";. c #9495BF",
":. c #B5ACAB",
">. c #BBADA9",
",. c #BAB3B3",
"<. c #BFB9B9",
"1. c #D3AB8B",
"2. c #CEAE94",
"3. c #CFB198",
"4. c #D3B399",
"5. c #E8B284",
"6. c #E8BB94",
"7. c #D5B9A2",
"8. c #C5BCB9",
"9. c #E3BFA0",
"0. c #DFC5AE",
"q. c #CEC1B6",
"w. c #C9C1BE",
"e. c #E0C1A9",
"r. c #E6D1BF",
"t. c #9596C1",
"y. c #9999C3",
"u. c #9FA0C5",
"i. c #B8BBC0",
"p. c #B7BEC6",
"a. c #BCC7CF",
"s. c #B8C1CB",
"d. c #BBC9D3",
"f. c #B8CCDC",
"g. c #B8C7D4",
"h. c #BED0DF",
"j. c #BCD1E1",
"k. c #CAC8C6",
"l. c #C2CED6",
"z. c #CBCFD2",
"x. c #CDD0D3",
"c. c #C7D2DA",
"v. c #DADBDC",
"b. c #E5D1C0",
"n. c #E4D5C9",
"m. c #E0DEDB",
"M. c #CBDBE8",
"N. c #D9E7F1",
"B. c #DFEAF2",
"V. c #E3E3E1",
"C. c #E1EDF5",
"Z. c #E2EFF9",
"A. c #E2EFF9",
/* pixels */
"                                                                                                                                ",
"                                                                                                                                ",
"                                                                                                                                ",
"                                                                                                                                ",
"                                                                                                                                ",
"                                                                                                                                ",
"                                                                                                                                ",
"                                                                                                                                ",
"                                                                                                                                ",
"                                                                                                                                ",
"                                                                                                                                ",
"                                                                                                                                ",
"                                                                                                                                ",
"                                                                                                                                ",
"                                                                                                                                ",
"                                                                                                                                ",
"                                                                                                                                ",
"                                                    1 1 < < < < < < < < < < < < 1 1                                             ",
"                                    < < < 1       1 < , > > > > > > > > > > > > > > > , , < <                                   ",
"                                  < > : : : > - - - = = = = % % % % % % % % % = = = = = = - : ,                                 ",
"                                  > = $ X $ $ % % $ $ $ $ $ $ $ $ $ $ $ $ $ $ $ $ $ $ X X $ % - ,                               ",
"                                  = $ X X X X $ $ $ $ $ $ $ $ $ $ $ $ $ $ $ $ $ $ $ $ X X X X % -                               ",
"                                  = $ X X X X $ $ $ $ $ $ $ $ $ $ $ $ $ $ $ $ $ $ $ X X X X X %                                 ",
"                                  = % X X X X $ $ $ $ $ $ $ $ $ $ $ $ $ $ $ $ $ $ $ X X X X X &                                 ",
"                                    & X X X X $ $ $ $ $ $ $ $ $ $ $ $ $ $ $ $ $ $ $ X X X X $ =                                 ",
"                                    = $ X X X $ $ $ $ $ $ $ $ $ $ $ $ $ $ $ $ $ $ $ $ X X X $ =                                 ",
"                                    = $ X X X $ $ $ $ $ $ $ $ $ $ $ $ $ $ $ $ $ $ $ $ X X X % =                                 ",
"                                    = % X X X $ $ $ $ $ $ $ $ $ $ $ $ $ $ $ $ $ $ $ $ X X $ & =                                 ",
"                                    = % $ X $ $ $ $ $ $ $ $ $ $ $ $ $ $ $ $ $ $ $ $ $ X X $ &                                   ",
"                                    = % $ X $ $ $ $ $ $ $ $ $ $ $ $ $ $ $ $ $ $ $ $ $ X X $ &                                   ",
"                                    3 $ X X $ $ $ $ $ $ $ $ $ $ $ $ $ $ $ $ $ $ $ $ $ X X $ & 6                                 ",
"                                  b y X X X X $ $ $ $ $ $ $ $ $ $ $ $ $ $ $ $ $ $ $ $ X X X * u v                               ",
"                                x k w o X X X $ $ $ $ $ $ $ $ $ $ $ $ $ $ $ $ $ $ $ X X X . @ p h j                             ",
"                              j h i 7 O X X X X $ $ $ $ $ $ $ $ $ $ $ $ $ $ $ $ $ X X X X . + 9 a h                             ",
"                              j h t 8 + . X X X $ $ $ $ $ $ $ $ $ $ $ $ $ $ $ $ $ X X X . o 7 0 p h x                           ",
"                              j h p 9 7 + X X X X $ $ $ $ $ $ $ $ $ $ $ $ $ $ $ X X X X * # 8 9 a h                             ",
"                                x h s i a e 4 ; & & $ $ $ $ $ $ $ $ $ $ $ $ $ $ & & ; 3 r i i s h j                             ",
"                                  v v x l z l k d r q 5 3 2 2 2 2 2 2 2 2 3 5 q r d h l l l x x j                               ",
"                                        x b z z N N N N l l l l l l l l l l N N z z z c b                                       ",
"                                        I b z z z z z z z z z z z z z z z z z z z z z b                                         ",
"                                      5.Y N M N V Q n n n n b b b b b n n n n b N M N I e.                                      ",
"                                  C.A.6.R Y U I 2.w.8.<.,.,.:.:.:.:.:.,.<.<.8.^ L L U ( b.A.C.                                  ",
"                                C.C.A.6.E E R T ~ 4.z.c.l.l.d.a.a.a.d.l.l.k.1.Y U Y R ` b.A.C.C.                                ",
"                              B.C.C.A.6.E E E R T Y _ 7.k.x.x.z.z.z.z.q.2.~ U T T R E ` r.A.C.C.B.                              ",
"                          f.h.M.N.C.A.9.E E E E E E R R ( [ ) ) ) [ ' / R R E E E E E ` n.A.C.N.M.h.f.                          ",
"                        s.s.f.f.j.M.N.0./ E E E E W W W W E E E E E E E W W E E E E E ] m.N.M.j.f.f.s.p.                        ",
"                        m C -.i.f.j.j.q.( E E E E E W W ` ` ` ` ` ` ` ` W W E E E E R ' c.j.f.f.i.-.C m                         ",
"                        v l l m =.,.g.k.( R E E E E E W W W W W W W W W W E E E E R R _ g.g.,.=.m l l v                         ",
"                      v x l l l l b Z >.( R R E E E E E W W W W W W W W E E E E R R R 1.:.Z b l l l l x v                       ",
"                      v l l l l l l l   / R R R R E E E E E E E E E E E E E E R R R (     c l l l l l l v                       ",
"                      x l l l l l b b   Y U P P F F F F F F F F F F F F F F F F P P Y     b b l l l l l x                       ",
"                    v x k l l l l b       D A A A A S S S S A A A A A A A A A A A A L       b c l l l k l v                     ",
"                    x k k k l l l b       J H G G B V V B B B b b B B V V V B G H J L       b l l l k k k x                     ",
"                    x h k k k l l l c f     o.#.O.O.O.O.O.O.O.O.O.O.O.O.O.O.O.O.#.*.    f c l l l k k k h x                     ",
"                    h f f g k k k k l k a   @.%.$.$.$.$.$.$.$.%.%.$.$.$.$.$.$.$.%.    a k l k k k k g f f h                     ",
"                    h f s f f g k k k k a i   @.+.+.+.+.+.+.@.    @.+.+.+.+.+.@.&.  i a k k k k g f f s f h                     ",
"                    h s a s s s f f f k s i   +.+.X.X.X.X.+.@.    @.+.X.X.X.X.+.@.  i s k f f f s s s a s h                     ",
"                    d d a a a a s s s h f     ..| | | | |  ...    ..| | | | |  ...    f h s s s a a a a d d                     ",
"                      d p p p p p a s f h     | } { { { { } |     | } { { { { } |     h f s a p p p p p d                       ",
"                      d d p p p p p d h h     u.t.t.;.;.t.t.y.    y.t.t.;.;.t.t.u.    h h d p p p p p d d                       ",
"                        d d d d d d d h     v.V.V.V.V.V.V.V.V.    V.V.V.V.V.V.V.V.v.    h d d d d d d d                         ",
"                                          v.v.v.v.v.v.v.v.v.v.    v.v.v.v.v.v.v.v.v.v.                                          ",
"                                        2.2.2.2.2.2.2.2.2.2.3.    3.2.2.2.2.2.2.2.2.2.2.                                        ",
"                                      ! K H H H H H H H H H K     K H H H H H H H H H K !                                       "
};
