/* XPM */
static char *_6550d2a9e21461ea8474529e7a6f8e6[] = {
/* columns rows colors chars-per-pixel */
"64 64 194 2 ",
"   c #2EB082",
".  c #36393D",
"X  c #3A3C3E",
"o  c #463E3C",
"O  c #55443D",
"+  c #4D403C",
"@  c #7E462D",
"#  c #784D3A",
"$  c #6C4C3E",
"%  c #3C3E41",
"&  c #373C40",
"*  c #403F41",
"=  c #3E4043",
"-  c #434243",
";  c #494443",
":  c #43464B",
">  c #46494D",
",  c #514643",
"<  c #5C4B45",
"1  c #554945",
"2  c #464B51",
"3  c #494E55",
"4  c #4B5057",
"5  c #4F535A",
"6  c #51565B",
"7  c #555759",
"8  c #6B5247",
"9  c #69534A",
"0  c #665048",
"q  c #7D5B4C",
"w  c #745648",
"e  c #6F564C",
"r  c #5B5D60",
"t  c #7B7676",
"y  c #874F36",
"u  c #824F38",
"i  c #8C5136",
"p  c #8D543B",
"a  c #835039",
"s  c #9B593B",
"d  c #975536",
"f  c #855C4A",
"g  c #8B614E",
"h  c #91634F",
"j  c #9F6549",
"k  c #8C6757",
"l  c #946651",
"z  c #9B6953",
"x  c #A36344",
"c  c #A3674A",
"v  c #A5694C",
"b  c #AB6B4D",
"n  c #A86749",
"m  c #B26E4D",
"M  c #A46C53",
"N  c #AC6E51",
"B  c #B06F50",
"V  c #AC7156",
"C  c #AD7459",
"Z  c #B47354",
"A  c #BA7655",
"S  c #BE7857",
"D  c #B47659",
"F  c #B6795C",
"G  c #BC795A",
"H  c #B97758",
"J  c #8F766E",
"K  c #877973",
"L  c #B67D62",
"P  c #BB7E61",
"I  c #B07E6A",
"U  c #A87B75",
"Y  c #AE7D6B",
"T  c #C17A58",
"R  c #C07957",
"E  c #C17F60",
"W  c #BD815D",
"Q  c #9D877F",
"!  c #B98B76",
"~  c #D28745",
"^  c #D38845",
"/  c #D1894B",
"(  c #D98E4D",
")  c #C98551",
"_  c #C68955",
"`  c #C78D5B",
"'  c #C88656",
"]  c #D28E53",
"[  c #D28D5E",
"{  c #DB9254",
"}  c #D5925B",
"|  c #DC955A",
" . c #DA9459",
".. c #E19759",
"X. c #E59A5B",
"o. c #EA9D5D",
"O. c #EDA05F",
"+. c #C48568",
"@. c #CB9261",
"#. c #CD9B6F",
"$. c #D79A67",
"%. c #C78D72",
"&. c #CD967C",
"*. c #E59E63",
"=. c #E69F63",
"-. c #D7A57A",
";. c #EAA56B",
":. c #E6A36A",
">. c #E8A871",
",. c #43449B",
"<. c #47489E",
"1. c #7D7F81",
"2. c #4C4EA3",
"3. c #5254A6",
"4. c #5F62BA",
"5. c #7A6FA9",
"6. c #6D69B5",
"7. c #6366BE",
"8. c #6569BE",
"9. c #6968B9",
"0. c #716BB2",
"q. c #6366C0",
"w. c #666AC1",
"e. c #686BC0",
"r. c #92748A",
"t. c #8271A1",
"y. c #838586",
"u. c #8D8684",
"i. c #928686",
"p. c #969498",
"a. c #998195",
"s. c #B99886",
"d. c #A39A97",
"f. c #B89C92",
"g. c #A38E87",
"h. c #BBA596",
"j. c #A7A19E",
"k. c #9493AB",
"l. c #9BAAB7",
"z. c #9FB0BE",
"x. c #AAAAAD",
"c. c #A8A6A7",
"v. c #B7ABA8",
"b. c #ACAEB2",
"n. c #B9B8B9",
"m. c #B7B3B2",
"M. c #CD9A82",
"N. c #D19F88",
"B. c #C6A589",
"V. c #D5A788",
"C. c #CEAE94",
"Z. c #C2A794",
"A. c #CFB198",
"S. c #D7B49D",
"D. c #D9AF9A",
"F. c #E7BA94",
"G. c #E5B082",
"H. c #DBBAA7",
"J. c #C1B6AE",
"K. c #CDC2BA",
"L. c #E2CCBB",
"P. c #E3C8B1",
"I. c #E6C1A2",
"U. c #868FCA",
"Y. c #9596C0",
"T. c #999AC3",
"R. c #8690CD",
"E. c #9FB1C0",
"W. c #A0A0C6",
"Q. c #A3B5C4",
"!. c #ADBBC8",
"~. c #B8BBC2",
"^. c #B6C1CC",
"/. c #BCCAD5",
"(. c #B9CDDD",
"). c #B8C7D4",
"_. c #BED1E1",
"`. c #C6C9CB",
"'. c #C9D4DD",
"]. c #DADBDC",
"[. c #CDCFD0",
"{. c #E6D7CD",
"}. c #E1DBD7",
"|. c #CCDBE8",
" X c #D7DDE2",
".X c #D8E3EB",
"XX c #D9E7F1",
"oX c #DDEAF4",
"OX c #E3E3E1",
"+X c #E8E8E9",
"@X c #E1EDF5",
"#X c #E2EFF8",
"$X c #E5F1FB",
"%X c #FBF9F9",
/* pixels */
"                                                                                                                                ",
"                                                                                                                                ",
"                                                                                                                                ",
"                                                                                                                                ",
"                                                                                                                                ",
"                                                                                                                                ",
"                                                                                                                                ",
"                                                                                                                                ",
"                                                                                                                                ",
"                                                                                                                                ",
"                                                                                                                                ",
"                                                                                                                                ",
"                                                                                                                                ",
"                                                                                                                                ",
"                                                                                                                                ",
"                                                                                                                                ",
"                                                                                                                                ",
"                                                6 5 5 5 5 5 5 5 5 5 5 5 5 6 6                                                   ",
"                                      5 5 4 3 3 3 3 3 3 3 3 3 3 3 3 3 3 3 3 4 5 6       5 5 5                                   ",
"                                  5 3 2 > : : : : : : : : : : : : : : : : : : > 2 > > 2 2 2 2 4                                 ",
"                                  4 : % % % % % % % % % % % % % % % % % % % % % % = = % % % % : 4                               ",
"                                  > % X X X X X % % % % % % % % % % % % % % % % % % X X X X X = >                               ",
"                                  : % X X X X X % % % % % % % % % % % % % % % % % X X X X X X = :                               ",
"                                  : = X X X X X % % % % % % % % % % % % % % % % % X X X X X X =                                 ",
"                                    = X X X X X % % % % % % % % % % % % % % % % % % X X X X X -                                 ",
"                                    - % X X X X % % % % % % % % % % % % % % % % % % X X X X % -                                 ",
"                                    - % X X X X % % % % % % % % % % % % % % % % % % * ; ; X % :                                 ",
"                                    : % X 0 8 < , ; - * % % % % % % % % - ; ; 1 8 q h M 8 X - :                                 ",
"                                    : = X f A Z Z N z l g g g g g g g h l M V Z S R R Z < % - >                                 ",
"                                    : - X 8 A A M M M V Z Z Z S R R S Z Z Z V M M M Z Z ; % -                                   ",
"                                    9 % X < Z z ; ; ; ; ; ; < V R S Z 0 ; ; ; ; ; ; h M - X - q                                 ",
"                                  F g X X ; Z N k j.x.y.1.K g A S S A l u.1.y.x.d.k N g X X , M F                               ",
"                                D Z f X X - M S D.%Xc.5 r m.+.S S R R %.d.5 7 [.%XN.S q X . O j Z C                             ",
"                              C V c p o . X g S D.%Xy.% > c.+.m b b m +.t = : n.%XN.A 8 . . O s b V                             ",
"                              C V x p + . X f S +.L.}.m.v.M.Z d d d s A Z.c.n.+XH.T Z 0 . . $ d x V C                           ",
"                              C V c s # O < z S S E M.V.%.M f # # # # h C M.V.&.R S A f , O a s b V                             ",
"                                D V b x b Z A S S S S M 8 ; * % % % % - ; w N S S S A Z N x x b V C                             ",
"                                  F F D A A S S S R Z < & % % % ; ; % % % & 8 A S S A A A Z Z D D                               ",
"                                        F S S S S S Z g q q q h N M g q q q l S S S S F F                                       ",
"                                        [ S S S S S S R R R R R R R R R R R R S S S S S                                         ",
"                                      G.| T G P P P A A A A A A A A A A A A G P P G T [ H.                                      ",
"                                  @X#XF...} h.b.b.x.g.z p i i y y y i p l Q c.x.b.h.} | L.oX@X                                  ",
"                                @X@X$XF.X...$.Z.n.Q.Q.l.i.k u @ @ # k u.k.z.Q.b.h.#. .| L.@X@X@X                                ",
"                              @X@X#X$XF.X.X.| | $.B.b.Q.E.l.p.J J p.l.z.z.c.s.@.] { | X.L.#X@X@X@X                              ",
"                          (._.|.XX@X#XI.o.o.....| { #.J.^.Q.Q.!.!.Q.Q.!.Z.@.] ] { | ..*.{.#X@XXX|._.(.                          ",
"                        ^.^.(.(._.|.XXP.=.o.o.X.....| $.S.`./.'.'./.K.V.} {  .| | ..X.:.}.XX|._.(.(.^.~.                        ",
"                        L ! f.~.(._._.K.*.o.o.o.o.o.X.X...-. X.X.X[.:.........X.X.X.X.:.'._.(.(.~.f.! L                         ",
"                        F Z A L s.m./.`.=.X.o.o.o.o.o.o.o.;.+X#X#XL.=.o.o.o.o.o.o.X.X.V./.).m.s.L A Z F                         ",
"                      F D Z A A A G ! v.=.X.o.o.o.o.o.O.o.;.+X$X$X{.;.o.O.o.o.o.X.X.X.V.v.! G A A A Z D F                       ",
"                      F Z Z A A A A H   $.*.o.o.o.o.o.o.o.>..XoXoX{.;.o.o.o.o.o.X.X.*.    F A A A A Z Z F                       ",
"                      D Z A A A A F F   | | { { { { ( ( ( -.'._._.`.} ( ( ( { { { { |     G F A A A A Z D                       ",
"                    F D Z Z A A A F       / / ~ ~ ~ ^ ^ ^ B.(.(.(.).@.^ ^ ~ ~ ~ ~ / ]       F A A A Z Z Z F                     ",
"                    D Z Z Z Z A A F       ] ) ) ' W L Y U k.R.U.U.U.a.U I L ' ) ) ] ]       F A A A Z Z Z D                     ",
"                    D V Z Z Z Z A A F N     t.5.0.6.9.9.7.7.7.7.7.7.q.7.9.6.6.0.5.r.    N F A A Z Z Z Z V D                     ",
"                    V N N Z Z Z Z Z Z Z c   w.w.q.q.q.q.7.7.8.8.8.8.7.7.q.q.q.q.w.    c Z Z Z Z Z Z Z N N V                     ",
"                    V N b N N Z Z Z Z Z c x   8.7.7.7.7.7.7.8.    8.7.7.7.7.7.8.e.  x n Z Z Z Z Z B N b N V                     ",
"                    V b b b b b b N N Z b x   7.7.4.4.4.4.7.8.    8.7.4.4.4.4.7.8.  x b Z N N b b b b b b V                     ",
"                    N M b c b b b b b N N     3.2.2.2.2.2.2.3.    3.2.2.2.2.2.2.3.    N N b b b b b c b M N                     ",
"                      M c c c c c c b N C     2.<.,.,.,.,.<.2.    2.<.,.,.,.,.<.2.    C N b c c c c c c M                       ",
"                      M M c c c c c M V C     W.Y.Y.Y.Y.Y.Y.T.    T.Y.Y.Y.Y.Y.Y.W.    C V M c c c c c M M                       ",
"                        M M M M M M V C     ].OXOXOXOXOXOXOXOX    OXOXOXOXOXOXOXOX].    C V M M M M M M                         ",
"                                          ].].].].].].].].].].    ].].].].].].].].].].                                          ",
"                                        C.C.C.C.C.C.C.C.C.C.A.    A.C.C.C.C.C.C.C.C.C.C.                                        ",
"                                      @.` _ _ _ _ _ _ _ _ _ `     ` _ _ _ _ _ _ _ _ _ ` @.                                      "
};
