/* XPM */
static char *_8bb82346ea64cb8c1183c867bfa2c2bPbQLS1PqDeBvcqZZ[] = {
/* columns rows colors chars-per-pixel */
"64 64 15 1 ",
"  c #9D6D4F",
". c #D49A6F",
"X c #B28463",
"o c #6F442B",
"O c #885A3D",
"+ c #EAB98E",
"@ c #C38F69",
"# c #CD966D",
"$ c #BA8965",
"% c #A67656",
"& c #AD7E5E",
"* c #946447",
"= c #E0AC82",
"- c #7D5035",
"; c #DAA378",
/* pixels */
"oooooooooooooooooooooooooooooooooooooooooooooooooooooooooooooooo",
"ooooooooooooooooooooooooooooooooooooo-----oooooooo--Oooooooooooo",
"oooooooooooooooooooooooo-O-ooooooo-OOOOOO*&XXX*--OOOOOX&%**--ooo",
"oooooooooooooooooooooooo-OOOO---OOOOOOO*&XXXXX*OOOOO*&XXXXXXXX% ",
"oooooooooooooooooooooooooOO*****    %&XXXXXXXX*OOOO%XXXXXXXXXXXX",
"oooooooooooooo--** %%%%%%&XXXXXXXXXXXXXXXXXXXX*O*$@@$XXXXXXXXXXX",
"oooooo--OOO*%XXXXXXXXXXXXXXXXXXXXXXXXXXXXXXXXX&&@....@$XXXXXXXXX",
"ooo-*&X@...$XXXXXXXXXXXXXXXXXXXXXXXXXXXXXXXXXXX@.......#@$XXXX#.",
"** XXX$....@XX$$XXXXXXXXXXXXXXXXXXXXXXX$$XXXX@#...........#XXX..",
"XXXXXXX.....##..XXXXXXXXXX&&&XXXXXXXXXX@.###..............$XXX..",
"XXXXXXX$........XXXXXXX&%    %XXXXXXXXX@.................#XXXX@.",
"XXXXXXXX$......#%&XX&%     %%%&XXXXXXXXX#...####.........#XXXXX@",
"XXXXXXXXX@.....@  %X%     XXXXXXXXXXXXXXXXXXXXX$..........XXXXXX",
"XXXXXX&&%%%   @@   &%    &X@#XXXXXXXXXXXXXXXXXX$..........#XXXXX",
"          *OOO#@   %%    XX#.#@@$@@@@@XXXXXXXXX$...........@XXXX",
" **      *O*&..@    &   %XXX#..........@XXXXXXX@............$X$@",
"  OOO**OOO  @..@    &&@@#.@XX@..........XX$@XX$.............#...",
"   OOOOOOO $...@    &X.....XXX#........#XX$.@@..................",
"    OOOOO* #..X*O   %X.....$XX@........#XX$.....................",
"     *OOO  %%*OOOO* %X#....#$$#........@XXX....#@@@.............",
"      OO* OOOOOOOOO* X@................XXXX@..#XXXX@............",
"      *  OOO--OOOOOO*%X#.....@$X$@##.#$XXXX$..$XXXX$...#$$@.....",
"        OOO-oo-OOOOOO*%$....@XXXXXXXXXXXXXXX#@XXXXXX#..#XXX@....",
"       *OOOOOoo-OOOOOO $...#XXXXXXXXXXXXXXXXXXXXXXXX#...XXX$....",
"       OOOOOOOoo-OOOO* &...@XXXXXXXXXXXXXXXXXXXXXXXX@...#XXX#...",
"       OOOOOOOooo-O*    $#.$XXXXXXXXXXXXXXX&%  %XXXX$....@XX$...",
"      *OOOOOOO-oooo       % &XXXXXXXXXXXX&%     XXXXX#...@XXX$$@",
"      *OOOOOOO-ooo-         %XXXX&&XXXX&%      &XXXXXX@#@$XXXXX$",
"       OOOOOOO-o-O* %%%     %XXXX%  %       %&XX$$XXXXXXXXXXXXX#",
"       %%% ***OOOO &....    &XXXXX    %%  %XXX@....#$XXXXXXX$@#.",
"       XXX&   *OOO%.....&%%&XXXXXX&&&$$X &$$XX###....#$XXXX#....",
"X%    %XXXX%  *OO*%......@XXXXXXXXXX$.......@XXXX#....$XXX$....#",
"X     &XXXXX   OO*%........$XXXXXXXXX#......@XXXX#....XXXXX@.#$X",
"$     &XXXXX  *OO*%.........@XXXXXXXXX......$XXXX#....$XXXXXXXXX",
"$     XXXXX&  *OO*%..........$XXXXXXXX#;;..#XXXXX#....$XXXXXXXXX",
"X     &&&&%   OOO*%##.........$XXXXXXX;++..@XXXXX#....@XXXXXXXXX",
"X             OOO* &XX@.......@XXXXXXX=++=.$XXXXX#....@XXXXXXXXX",
"X             OOO   XXX$#......$XXXXXX=+++.@XXXXX#....@XXXXXXXXX",
"X%            O*    %XXXX#.....@XXXXXX=++++;@XXXX@...#$XXXXXXXXX",
"X%                   %XXXX@....#XXXXXX=+++++@XXXXX$$XXXXXXXXXXXX",
"X&            %       %XXXXX@@#@XX@#$X;+++;@XXXXXXXXXXXXXXXXXXXX",
"XX%           &X%      %XXXXXXXXX@...#.=+#XXXXXXXXXXXXXXXXXXXXXX",
"XXX           %XX&     &.@XX@.@X$.......+$XXXXXXXXXXXXXXXX@@XXXX",
"XXXX          %XXXX%%%X..@X@..@X@.......;@XXXXXXXXXXXXXXX=++=#XX",
"XXXXX%         &XXXXXX#..@X#..#$..........@XXXXXXXXXXXXX;+++++=$",
"XXXXXX&%        &XX##....$X#...............@@@@@$XXXXXXX=++++++.",
"XXXXXXXXX% %%    %X@.....XX@.....................$XXXXX$++++++;$",
"XXXXXXXX@#..@      &@...@XX$....................$XXXXXX@.=++=$XX",
"XXXXX@#......X%     %@..#XX$...................$XXXXXXX$...;#XXX",
"XXX@.........$X&      ...#$#..................$XXXXXXXXX#....$XX",
"X@...........#XXX    &...................=+..#XXXXXXXXXX$....@XX",
"@.............;$X& %@................;=++++..$X$$XXXXXXXX#...#XX",
".............;++$X%#.............;==+++++++;.$#...@$XXXXX#...@@@",
".............+++$XX...........;=+++++++++++=..=......@@@#.......",
"=;.........;+++@XXX@.........=+++==+++++++++==+=................",
"#++===;;;=++++=XXXXX#.......=++=....;=+++++++++;................",
"X=++++++++++++$XXXXX@.......=++.......;+++++++=.................",
"X===++++++++++#@$$$$@........+=.........=+++++.........#........",
"......=++=;+++++.............=;...........=++=.........#$#......",
"........;..;++++;..............@@@####......;=....@@@@#.XXX$@#..",
"............=+++=.............@XXXXXX@.........#$XXXXX##XXXXXX..",
"............=++++..............@XXXX$.........#XXXXXXX#@XXXXX$.$",
"............=++++...............#XXX@.........$XXXXXXX$XXXXXX@$X",
"............=+++=................@XX@...........#@XXXXXXXXXXXXXX"
};
