/* XPM */
static char *_76a224ed32844aa97d6f0fca5b1b584[] = {
/* columns rows colors chars-per-pixel */
"64 64 24 1 ",
"  c #D46A50",
". c #1B0D09",
"X c #964532",
"o c #3A1A12",
"O c #D76B51",
"+ c #090403",
"@ c #8D3E2B",
"# c #010000",
"$ c #A64B35",
"% c #C3583F",
"& c #9D4E3B",
"* c #AA523D",
"= c #47221A",
"- c #CB634A",
"; c #A2513D",
": c #642E20",
"> c #4C251C",
", c #C55F47",
"< c #28130E",
"1 c #823A29",
"2 c #B6553E",
"3 c #31160F",
"4 c #421E16",
"5 c #763727",
/* pixels */
"################################################################",
"################################################################",
"################################################################",
"##++++++++##+++++++++++++++++++##+++++++++++++++++++##++++++++##",
"#.51115:::<#5*************;XXX@..X*************;XXX:#311115:::.#",
"#<X$$$X@@@3#&OOOOOOOOOOOOO %%%2..,OOOOOOOOOOOOO-%%,@#o$$$$@@@1.#",
"#.X$$$@@@@3#&O             %%%*..,             -%%%@#o$$$$@@@1.#",
"#<X$$$@@@@3#&O             %%%2..,             -%%%@#o$$$$@@@1.#",
"#.X$$$@@@@3#&O        ,-   %%%*..,             -%%%@#o$$$$@@@1.#",
"#<X$$$@@@@3#&O      O@.32O %%%*..,             -%%%@#o$$$$@@@1.#",
"#.X$$$@@@@3#&O      OX<o2O %%%2..,             -%%%@#o$$$$@@@1.#",
"#<X$$$@@@@3#&O        ,-   %%%*..,             -%%%@#o$$$$@@@1.#",
"#.X$$$X@@@3#&OOOOOOOOOOOOO %%%2..,OOOOOOOOOOOOO-%%%X#o$$$$@@@1.#",
"#.5151::::<#5;&&&&&&&&&&&&&X@@1..X&&&&&&&&&&&&&&@@X:#<5155::::+#",
"#####################++######+###########++#####################",
"#+=>>>>>>>>>>>>>=44=<#.oooooooooooooo3333+#3>>>>>>>>>>>>>>444o+#",
"#<,             -%%%1#4$$$$$$$$$$$$$$X@@@o#XO             %%%2<#",
"#<-             -%%%1#=$$$$$$$$$$$$$$@@@@o#XO;>:,         %%%2<#",
"#<-             -%%%X<:$$$$$$$$$$$$$$X@@@o#XO5#.2O        %%%2<#",
"#<-             -%%%%*$$$$$$$$$$$$$$$@@@@o#XO,&*          %%%2<#",
"#<-             -%%%%2$$$$$$$$$$$$$$$X@@@o#XO OO          %%%2<#",
"#<-             -%%%$45$$$$$$$$$$$$$$@@@@o#XO             %%%2<#",
"#<-             -%%%1#=$$$$$$$$$$$$$$X@@@o#XO             %%%2<#",
"#<-             -%%%1#=$$$$$$$$$$$$$$@@@@o#XO             %%%2<#",
"#<,             -%%%1#4$$$$$$$$$$$$$$@@@@o#X              %%%2<#",
"#+4=============4444<#.oo3oo3oo3oo3oo33<3+#<==============444o+#",
"###+++#######+++++++++++++++++####+++++++++++++#################",
"#.X;;;XXXX3#5;;;;;;;;;;;;;&XXX1..X;;;;;;;;;;;;;&XXX:#<1111::::.#",
"#<-OOO,%%%=#&OOOOOOOOOOOOO %%%2..,OOOOOOOOOOOOO-%%%X#o$$$$@@@1.#",
"#<-   ,%%%=#&O OOO  OO     %%%*..,            O-%%%@#o$$$$@@@1<#",
"#<-   ,%%%=#&O *:1-2:5,    %%%2..,             -%%%@#o$$$$@@@@:+",
"#<-   ,%%%=#&OO:#.2@#+&O   %%%*..,             -%%%@#o$$$$@@@@1.",
"#<-   ,%%%=#&O ,@& ,XX-    %%%*..,             -%%%@#o$$$$@@@@:+",
"#<-   ,%%%=#&O  OO  OO     %%%2..,             -%%%@#o$$$$@@@1.#",
"#<-   ,%%%=#&O            -%%%*..,             -%%%@#o$$$$@@@1.#",
"#<-OOO,%%%=#&OOOOOOOOOOOOOO%%%2..,OOOOOOOOOOOOO-%%,@#o$$$$@@@1.#",
"#.X;;;XXXX3#5;;;;;;;;;;;;;&XXX1..X;;;;;;;;;;;;;&XXX:#<1115::::.#",
"###++++++####+++++++++++++########+++++++++++++###########+++###",
"#+3ooooooooooooo3333.#.==============4444.#<==============444o+#",
"#.X$$$$$$$$$$$$$X@@@:#:              ,%%%>#X              %%%2<#",
"#.X$$$$$$$$$$$$$X@@@:#:O             ,%%%>#XO             %%%2<#",
"#<X$$$$$$$$$$$$$X@@@:#:              ,%%%>#XO    -,       %%%2<#",
"#.X$$$$$$$$$$$$$X@@@:#:              ,%%%>#XO   -><5      %%%2<#",
"#<X$$$$$$$$$$$$$X@@@:#:              ,%%%>#XO   -=.: OO   %%%2<#",
"#.X$$$$$$$$$$$$$X@@@:#:              ,%%%>#XO    -,-;:1-  %%%2<#",
"#<X$$$$$$$$$$$$$X@@@:#:              ,%%%>#XO      O:#.2O %%%2<#",
"#.X$$$$$$$$$$$$$X@@@:#:O             ,%%%>#XO       2X;   %%%2<#",
"#.X$$$$$$$$$$$$$X@@@:#:              ,%%%>#XO        OO   %%%2<#",
"#+3oooooooooooooo333.#.>>>>>>>>>>>>1 %544.#3>>>>>>>>>>>>>>444o+#",
"####################+++############4-,4##++#####################",
"#.X&&&X@@@3#5;&&&&&&&&&&&&&X@@1..X&2  2&&&&&&&&X@@X:#<5515::::+#",
"#<-OOO,%%%=#&OOOOOOOOOOOOO %%%2..,OO  OOOOOOOOO %%%@#o$$$$@@@1.#",
"#<-   ,%%%=#&O             %%%*..,O*44*O       -%%%@#o$$$$@@@1.#",
"#<-   ,%%%=#&O             %%%2..,O&..&O       -%%%@#o$$$$@@@1.#",
"#<-   ,%%%=#&O OO         -%%%*..,  22         -%%%@#o$$$$@@@1.#",
"#<-   ,%%%=#&O2@&          %%%*..,  OO         -%%%@#o$$$$@@@1.#",
"#<-   ,%%%=#&O:#.2O        %%%2..,             -%%%@#o$$$$@@@1.#",
"#<-   ,%%%=#&O*:1-         %%%*..,             -%%%@#o$$$$@@@1.#",
"#<-OOO,%%%=#&OOOOOOOOOOOOO %%%2..,OOOOOOOOOOOOO-%%%X#o$$$$@@@1.#",
"#.&***&XXX3#5*************;XXX@..X*************;XXX:#311115:::.#",
"##++++++++##+++++++++++++++++++##+++++++++++++++++++##++++++++##",
"################################################################",
"################################################################",
"################################################################"
};
