/* XPM */
static char *_32a9e0f7dd64f24b4292f4354e5c2d68pqa0cNOdFObtJAY[] = {
/* columns rows colors chars-per-pixel */
"32 32 131 2 ",
"   c #000000",
".  c None",
"X  c #5086B1",
"o  c #3E5465",
"O  c #3B6282",
"+  c #446075",
"@  c #598FB9",
"#  c #707E87",
"$  c #8CACC5",
"%  c #4579A2",
"&  c #5C8EB6",
"*  c #C1D5E5",
"=  c #5285AC",
"-  c #395063",
";  c #4D789A",
":  c #7E9CB4",
">  c #4D7A9F",
",  c #4F85AF",
"<  c #ABC0D0",
"1  c #385266",
"2  c #3D5970",
"3  c #3F6A8C",
"4  c #5380A4",
"5  c #3D5F79",
"6  c #5A92BD",
"7  c #5592C0",
"8  c #588FBB",
"9  c #4F82AB",
"0  c #5389B2",
"q  c #C0D2E3",
"w  c #C0D3E3",
"e  c #558EBA",
"r  c #384D5D",
"t  c #4D84AF",
"y  c #354B5C",
"u  c #3E5D75",
"i  c #49789D",
"p  c #4E7593",
"a  c #A5B4C1",
"s  c #B4C8D8",
"d  c #304759",
"f  c #374C5C",
"g  c #A5B5C1",
"h  c #A4B4C0",
"j  c #3F6889",
"k  c #497496",
"l  c #526676",
"z  c #567994",
"x  c #A2B5C3",
"c  c #A3B4C0",
"v  c #A6B6C2",
"b  c #749AB7",
"n  c #779BB7",
"m  c #6B92B1",
"M  c #4B7CA2",
"N  c #AEC0CD",
"B  c #9DB1C0",
"V  c #B3C5D2",
"C  c #4C83AE",
"Z  c #3A5163",
"A  c #467599",
"S  c #9AB5C9",
"D  c #5187B1",
"F  c #90B0C9",
"G  c #8AAFCB",
"H  c #395870",
"J  c #456F90",
"K  c #5A93BF",
"L  c #558FBD",
"P  c #BFD3E3",
"I  c #729ABA",
"U  c #BFD3E3",
"Y  c #82A6C3",
"T  c #405B71",
"R  c #4F87B4",
"E  c #3C5E79",
"W  c #4F87B3",
"Q  c #426885",
"!  c #3E5E77",
"~  c #3E5E77",
"^  c #598CB5",
"/  c #4A7699",
"(  c #588DB7",
")  c #7796AE",
"_  c #3A576E",
"`  c #4D80A8",
"'  c #4A7DA5",
"]  c #415D72",
"[  c #4A7CA4",
"{  c #B1C5D5",
"}  c #5D8EB4",
"|  c #4877A7",
" . c #5393C5",
".. c #487EA9",
"X. c #4477A0",
"o. c #477CA7",
"O. c #35536B",
"+. c #4A80AB",
"@. c #324C61",
"#. c #5695C6",
"$. c #43749A",
"%. c #406F93",
"&. c #5394C6",
"*. c #4B84B1",
"=. c #5190C1",
"-. c #2D4457",
";. c #C0D4E5",
":. c #3C6A8E",
">. c #427297",
",. c #385B77",
"<. c #5292C4",
"1. c #4F8CBC",
"2. c #304657",
"3. c #467BA5",
"4. c #3C6688",
"5. c #4E87B4",
"6. c #3A5E7B",
"7. c #EDF3F8",
"8. c #CFE1EF",
"9. c #355771",
"0. c #4E84AE",
"q. c #AECBE2",
"w. c #CBDEEE",
"e. c #324859",
"r. c #C4D7E6",
"t. c #314758",
"y. c #5493C4",
"u. c #6999BE",
"i. c #76A2C5",
"p. c #D5E2EE",
"a. c #D9E5EF",
/* pixels */
"                                                                ",
"                                                                ",
"                                                                ",
"                                                                ",
"                                                                ",
"                                                                ",
"                                                                ",
"                                                                ",
"                                #                               ",
"                      # $ q w * * * w q                         ",
"                    $ & s U ;.;.;.;.;.P < = #                   ",
"                    > 9 Y r.a.7.7.7.p.;.I i ;                   ",
"                  & , +.i.q.w.8.8.8.w.q.u.+.0 :                 ",
"                  K . =. .#.#.#.#.#.#.#.y.=.7 6                 ",
"                  8 . <. . . . . . . . . .<.7 @                 ",
"              $ 6 L . <. . . . . . . . . .<.. e @               ",
"              @ X +.=. . . . . . . . . . .. 1...9 &             ",
"              8 0.X.*.=. . . . . . . . .<.5.3.$.t @             ",
"              = e t o...1. . . . . . . .5.% 3.X 0 p             ",
"              # T E %.o.+.=.&.&.&.&.&.=...X.j k $               ",
"              + 1 @.9.O %.o...o.o.o...>.O ,.@.-                 ",
"              ; 5 @.@.O.:.%.:.:.:.:.%.O @.@.O.Q =               ",
"          # o ~ 6.O 3 $.% % X.X.X.X.X.X.%.j O 6.! o #           ",
"          + 2 3 ,.1 M X.% 3.o.o.o.o.3.% % k 1 ,.3 2 +           ",
"          + 5 ,.H Z / >.>.$.$.$.$.$.>.>.i ; Z H ,.5 +           ",
"          4 A %.J   ] _ O.O.O.O.O.O.O.O.2 p # J %.A 4           ",
"          > [ +.D G 4 ` ..+.+.....+.....M ) G D +.' >           ",
"          b X *.5.F { ( *.*...R W ..*.*.^ s F 5.*.X b           ",
"        $ x n C , S V m X.4.6.u u 6.4.X.m V S , C n x $         ",
"        # g c B $ < N z 4.9.@.- - @.9.4.z N < $ B c g #         ",
"          a h v $ : l d -.-.-.y y -.-.-.d l : $ v h a           ",
"              $   o f t.2.2.e.r r e.2.2.t.f o   $               "
};
