/* XPM */
static char *_94383390ae04a139f01d703c8f11037A8pkuchtEoga8Phf[] = {
/* columns rows colors chars-per-pixel */
"32 32 147 2 ",
"   c #0000000",
".  c #9AAAB7",
"X  c #5287B1",
"o  c #5C8EB6",
"O  c #5990B9",
"+  c #4D799A",
"@  c #538BB6",
"#  c #707E87",
"$  c #8CADC6",
"%  c #3A6383",
"&  c #5490C0",
"*  c #518AB7",
"=  c #395063",
"-  c #3E5262",
";  c #4D789A",
":  c #C1D5E4",
">  c #4D7BA0",
",  c #5A7F9B",
"<  c #A2B5C4",
"1  c #5187B2",
"2  c #A0B4C3",
"3  c #3F586B",
"4  c #9DBBD4",
"5  c #4679A0",
"6  c #375166",
"7  c #5280A4",
"8  c #384D5D",
"9  c #5C93BD",
"0  c #588FBC",
"q  c #354C5D",
"w  c #4B7DA4",
"e  c #6E9ABC",
"r  c #C0D3E3",
"t  c #3E5D75",
"y  c #304759",
"u  c #374C5C",
"i  c #4D82AC",
"p  c #497496",
"a  c #A2B5C3",
"s  c #567994",
"d  c #B4C8D8",
"f  c #39576D",
"g  c #A6B6C2",
"h  c #3E5262",
"j  c #A4B4C1",
"k  c #526676",
"l  c #3E5E77",
"z  c #3C596F",
"x  c #749AB8",
"c  c #9DB1C0",
"v  c #6B92B1",
"b  c #AEBFCD",
"n  c #447297",
"m  c #3E607A",
"M  c #5387AF",
"N  c #4C83AD",
"B  c #B3C4D3",
"V  c #467599",
"C  c #395870",
"Z  c #90B0C9",
"A  c #3A5163",
"S  c #456E8F",
"D  c #4A7DA5",
"F  c #5288B2",
"G  c #4E83AD",
"H  c #5488B2",
"J  c #5B92BC",
"K  c #578FBA",
"L  c #5A93BE",
"P  c #5388B2",
"I  c #A5BFD4",
"U  c #4C83AF",
"Y  c #3B617E",
"T  c #405B71",
"R  c #3C5E79",
"E  c #BFD2E3",
"W  c #BFD2E1",
"Q  c #BFD3E3",
"!  c None",
"~  c #426886",
"^  c #779BB7",
"/  c #47769B",
"(  c #3C5E77",
")  c #4B7699",
"_  c #3D5A6F",
"`  c #AFBFCD",
"'  c #AFC0CD",
"]  c #769BB7",
"[  c #B1C5D5",
"{  c #5380C1",
"}  c #385D79",
"|  c #5393C5",
" . c #4A80AB",
".. c #5290C1",
"X. c #43759D",
"o. c #4C86B3",
"O. c #314758",
"+. c #427298",
"@. c #3C6688",
"#. c #497FA9",
"$. c #335066",
"%. c #324D61",
"&. c #C0D4E5",
"*. c #2D4457",
"=. c #35536B",
"-. c #698E8D",
";. c #3D698C",
":. c #4E8DC0",
">. c #CEE0EF",
",. c #4B83B0",
"<. c #4D88B6",
"1. c #335671",
"2. c #4F8BBA",
"3. c #5695C6",
"4. c #416E92",
"5. c #325169",
"6. c #74A6D0",
"7. c #73506E",
"8. c #3D6D92",
"9. c #EDF3F8",
"0. c #5C93BE",
"q. c #2B495F",
"w. c #718CA2",
"e. c #3B465B",
"r. c #F76193",
"t. c #719083",
"y. c #D7E4EF",
"u. c #AECBE2",
"i. c #E5C11B",
"p. c #4E84AE",
"a. c #385871",
"s. c #4A718E",
"d. c #6C879C",
"f. c #4D6F89",
"g. c #4A485E",
"h. c #AB597F",
"j. c #76A2C5",
"k. c #884E6E",
"l. c #84986F",
"z. c #B55C84",
"x. c #E9D057",
"c. c #C45E88",
"v. c #7D9678",
"b. c #FFDF63",
"n. c #FDDD5B",
"m. c #4B4F67",
"M. c #E7CE53",
/* pixels */
"                                                                ",
"                                                                ",
"                                                                ",
"                                                                ",
"                                                                ",
"                                                                ",
"                                                                ",
"                                                                ",
"                                #                               ",
"                        $ W r : : : r 4                         ",
"                    $ o d Q &.&.&.&.&.E I + #                   ",
"                    > w ! &.y.9.9.9.y.&.e w ;                   ",
"                  o X  .j.u.>.>.>.>.>.u.e  .P 9                 ",
"                  L ....| 3.3.| | | 3.3.| ..& J                 ",
"                  0 ..| | | 2.-.v.-.2.| | ..& O                 ",
"              $ K * ..<.<.:.-.i.n.M.t.:.<.<.& @ O               ",
"              O 1  .:.o.o.:.-.i.b.x.t.:.o.o.o.#.F o             ",
"              0 p.X.+.o.| | 2.-.l.-.2.| ..X.% X.G O             ",
"              9 @ U } =.5 ..0.6.6.6.0...+.%.Y i H ,             ",
"              # T R =.%.a.#.f.w.w.d.s. .=.%.f p $               ",
"              - 6 =.% } } X.4.@.@.;.+.+.} } %.=                 ",
"              ; ( } X.+.8.% 5.q.q.1.% ;.8.;.=.~ +               ",
"          # 3 l } % X.X.8.$.g.k.7.e.1.8.+.n % } l 3 #           ",
"          - z ;.} 6 / 5 @.%.h.r.r.7.$.+.5 p 6 } ;.z -           ",
"          + m } C A ) +.@.%.7.c.z.m.=.4.n ; A C } m +           ",
"          7 V 4.S   3 f 5.$.$.$.$.$.$.=._ , # S 4.V 7           ",
"          > D  .@ 4 7 i #. . .#.#. . .#.M , 4 @  .D >           ",
"          x 1 ,.o.Z [ M ,.,.#.* * #.,.o.X d Z o.,.1 x           ",
"        $ a ] N X 2 B v X.@.} t t } @.X.v B < X N ^ a $         ",
"        # < j c $ ' b s @.1.%.= = %.1.@.s b ` $ c j < #         ",
"          . 2 g $ . k y *.*.*.q q *.*.*.y k . $ g 2 .           ",
"              $   h u O.O.O.O.8 8 O.O.O.O.u h   $               "
};
