/* XPM */
static char *_7dd9abd759e4659d5fbcab1b56f039fFm42C1XkoBFxHBED[] = {
/* columns rows colors chars-per-pixel */
"32 32 175 2 ",
"   c #0000000",
".  c #4E6D84",
"X  c #3A5060",
"o  c #304758",
"O  c #C3D6E5",
"+  c #5A93C0",
"@  c #B4C6D4",
"#  c #85B1CD",
"$  c #3C5161",
"%  c #5280A3",
"&  c #4B80AA",
"*  c #487BA2",
"=  c #384F61",
"-  c #446B8A",
";  c #3D5568",
":  c #4E7FA5",
">  c #405B6F",
",  c #40596E",
"<  c #A8B9C5",
"1  c #587C99",
"2  c #354C5E",
"3  c #3B586F",
"4  c #9CADBB",
"5  c #3B5D78",
"6  c #394E5E",
"7  c #5B93BE",
"8  c #5182A7",
"9  c #507FA4",
"0  c #558AB3",
"q  c #BFD2E2",
"w  c #548CB8",
"e  c #96B5CD",
"r  c #568DB7",
"t  c #5491C1",
"y  c #A8BAC7",
"u  c #BFD4E4",
"i  c #4B7AA1",
"p  c #6692B3",
"a  c #BFD1E0",
"s  c #ADBCC9",
"d  c #A9BAC6",
"f  c #4E85B0",
"g  c #33495A",
"h  c #37566E",
"j  c #3B5C76",
"k  c #A9B9C6",
"l  c #48789E",
"z  c #446F91",
"x  c #487192",
"c  c #B3C5D3",
"v  c #3A5365",
"b  c #324A5D",
"n  c #41647F",
"m  c #3F5A70",
"M  c #518BB8",
"N  c #384E5F",
"B  c #A7B7C4",
"V  c #568CB6",
"C  c #5589B2",
"Z  c #A7B7C4",
"A  c #5086AF",
"S  c #354B5C",
"D  c #426F92",
"F  c #BFD3E3",
"G  c #518BB7",
"H  c #4D82AB",
"J  c #5089B5",
"K  c #5187B2",
"L  c #BFD4E4",
"P  c #A9B9C6",
"I  c None",
"U  c #BFD4E4",
"Y  c #5890BB",
"T  c #344F63",
"R  c #5289B4",
"E  c #3B5162",
"W  c #789FBD",
"Q  c #6D97B8",
"!  c #A0B6C7",
"~  c #3E6686",
"^  c #7098B7",
"/  c #AABAC7",
"(  c #ADBDCA",
")  c #365064",
"_  c #44759C",
"`  c #497DA6",
"'  c #6493B8",
"]  c #B2C2CF",
"[  c #487292",
"{  c #B2CFE5",
"}  c #AEC6D9",
"|  c #AEBECC",
" . c #487AA1",
".. c #6897BB",
"X. c #99ADBD",
"o. c #8EABC1",
"O. c #5187B2",
"+. c #436E8F",
"@. c #799FBD",
"#. c #B2C8D9",
"$. c #49779A",
"%. c #96B8D2",
"&. c #6096C0",
"*. c #509269",
"=. c #B9B9FB",
"-. c #3355A4",
";. c #5190C2",
":. c #335168",
">. c #35556E",
",. c #467AA4",
"<. c #5293C5",
"1. c #3C6789",
"2. c #4B83B0",
"3. c #4F8CBC",
"4. c #42749B",
"5. c #4981AD",
"6. c #97BEDC",
"7. c #3B6281",
"8. c #324A5E",
"9. c #4D87B5",
"0. c #406F94",
"q. c #2F4658",
"w. c #3D6484",
"e. c #334E63",
"r. c #43759E",
"t. c #355873",
"y. c #2C4254",
"u. c #CADCEA",
"i. c #474E66",
"p. c #F9FBFD",
"a. c #3E6B8F",
"s. c #385C78",
"d. c #4C8ABA",
"f. c #3B6485",
"g. c #4C8BBF",
"h. c #417197",
"j. c #50718C",
"k. c #8BAFCC",
"l. c #508AB7",
"z. c #3F698A",
"x. c #5591C0",
"c. c #BED3E4",
"v. c #739CBC",
"b. c #C4D8E7",
"n. c #C1D5E6",
"m. c #659AC4",
"M. c #88B3D6",
"N. c #E6EEF5",
"B. c #DC608E",
"V. c #436C8D",
"C. c #487EA8",
"Z. c #5B87AA",
"A. c #FFE56F",
"S. c #548AAF",
"D. c #B7AE45",
"F. c #678D8E",
"G. c #5889A4",
"H. c #7197B5",
"J. c #B45B82",
"K. c #434A61",
"L. c #604F6A",
"P. c #4C85B2",
"I. c #775372",
"U. c #FF6598",
"Y. c #5E8DA2",
"T. c #909C66",
"R. c #89996A",
"E. c #7B5271",
"W. c #C4B955",
"Q. c #99587C",
"!. c #E2C740",
"~. c #F1C60E",
"^. c #9CA362",
"/. c #3A607E",
"(. c #47704C",
/* pixels */
"                                                                ",
"                                                                ",
"                                                                ",
"                                                                ",
"                                                                ",
"                                                                ",
"                                                                ",
"                                                                ",
"                          @ O O O @                             ",
"                      a q L u U u F q O                         ",
"                  % 8 e c.n.u.u.u.n.c.e 8 %                     ",
"                  9 * v.b.N.p.p.p.N.b.v.* 9                     ",
"                7 w 9.m.M.6.6.6.6.6.M.m.9.w 7                   ",
"                + x.;.<.<.;.d.d.g.;.<.<.;.x.+                   ",
"              # + t ;.;.;.G.^.D.T.S.<.;.;.t + #                 ",
"            % r J 3.5.2.g.R.A.A.~.F.g.5.2.;.G r %               ",
"            C H 4.,.P.3.;.F.W.!.D.G.;.3.3.9.,.f V               ",
"            0 & 4.t.7.l.<.;.S.Y.l.;.<.3.0.w.,.K 0               ",
"            . : A j 8.w.3.Z.k.k.k.Z.d.w.8.5 R Y #               ",
"                # = e.:.C.V.j.j.j.V.,.:.e.:.3 ,                 ",
"                $ v :.f.4.4.0.1.f.0.h.1.a.7.e.3 ;               ",
"                m w.1.a.r.0.t.8.K.e.1.r.r.7.:.f.j : .           ",
"              1 +.s.5 ~ ,.1.i.J.B.I.>.4._ 3 ) h /.* i .         ",
"          # ..O.2. .n - * 7.i.B.U.Q.:.h.l > > n ` 2.f W s @     ",
"        @ d @.9.l.&.{ x 5 >.8.L.E.i.:.z.[     a ' 2.2.Q k B     ",
"        / k o.M M %.} $.z.7.s.t.>.>.>.>.m     ] ! ^ : p < d     ",
"        y < |   c #.H.,.2.5.I & & C.5.5.z ; $ 4 ( < s # Z y     ",
"          y 4 , X.H.r.a.1.D i p x l h.1.>.b 2 v 1 c P #         ",
"          , E g b :.s.:.h - #     1 z z.>.q.q.2 ,               ",
"          . X 2 q.y.y.o N .         , - T y.o X                 ",
"              $ = g o 6 .               = q.S $                 ",
"                  > X %                 $ 6 ;                   "
};
