/* XPM */
static char *_cb3c6eb5de44704a228e633cdafe4caHmhdmBmeZBOMfCKy[] = {
/* columns rows colors chars-per-pixel */
"32 32 175 2 ",
"   c #0000000",
".  c #B4C6D4",
"X  c #4E6D84",
"o  c #3A5060",
"O  c #588FB9",
"+  c #5A93C0",
"@  c #C3D6E5",
"#  c #85B1CD",
"$  c #3C5161",
"%  c #5280A3",
"&  c #4B80AA",
"*  c #384F61",
"=  c #487BA2",
"-  c #304758",
";  c #446B8A",
":  c #40596E",
">  c #3D5568",
",  c #4E7FA5",
"<  c #587C99",
"1  c #405B6F",
"2  c #9CADBB",
"3  c #354C5E",
"4  c #A8B9C5",
"5  c #3B586F",
"6  c #3B5D78",
"7  c #5182A7",
"8  c #507FA4",
"9  c #394E5E",
"0  c #96B5CD",
"q  c #558AB3",
"w  c #BFD2E2",
"e  c #548CB8",
"r  c #568DB7",
"t  c #5491C1",
"y  c #A8BAC7",
"u  c #BFD4E4",
"i  c #BFD1E0",
"p  c #6692B3",
"a  c #33495A",
"s  c #4B7AA1",
"d  c #446F91",
"f  c #A9BAC6",
"g  c #3B5C76",
"h  c #4E85B0",
"j  c #37566E",
"k  c #ADBCC9",
"l  c #AEBECB",
"z  c #A9B9C6",
"x  c #324A5D",
"c  c #B3C5D3",
"v  c #3A5365",
"b  c #5188B3",
"n  c #3F5A70",
"m  c #41647F",
"M  c #518BB8",
"N  c #4D82AB",
"B  c #384E5F",
"V  c #5089B5",
"C  c #354B5C",
"Z  c #5086AF",
"A  c #BFD4E4",
"S  c #4E7FA6",
"D  c #A7B7C4",
"F  c #3B5162",
"G  c #518BB7",
"H  c #BFD3E3",
"J  c #47769B",
"K  c #A7B7C4",
"L  c #426F92",
"P  c #344F63",
"I  c #BFD4E4",
"U  c #4A80AA",
"Y  c #5187B2",
"T  c #5890BB",
"R  c #A9B9C6",
"E  c #6897BB",
"W  c #789FBD",
"Q  c #AEC6D9",
"!  c #AEBECC",
"~  c #44759C",
"^  c #A0B6C7",
"/  c #497AA0",
"(  c #365064",
")  c #497DA6",
"_  c #6D97B8",
"`  c #3E6686",
"'  c #ADBDCA",
"]  c #7098B7",
"[  c #487292",
"{  c #6493B8",
"}  c #8EABC1",
"|  c #B2CFE5",
" . c #436E8F",
".. c #487AA1",
"X. c #99ADBD",
"o. c None",
"O. c #42627C",
"+. c #799FBD",
"@. c #B2C8D9",
"#. c #49779A",
"$. c #96B8D2",
"%. c #6096C0",
"&. c #6668FB",
"*. c #74FFFB",
"=. c #5155C5",
"-. c #335168",
";. c #5191C3",
":. c #35556E",
">. c #5293C5",
",. c #3C6789",
"<. c #467AA4",
"1. c #4B83B0",
"2. c #4F8CBC",
"3. c #42749B",
"4. c #4981AD",
"5. c #97BEDC",
"6. c #3B6281",
"7. c #324A5E",
"8. c #4D87B5",
"9. c #406F94",
"0. c #2F4658",
"q. c #334E63",
"w. c #3D6484",
"e. c #4C8BBE",
"r. c #4D89B9",
"t. c #43759E",
"y. c #355873",
"u. c #508FC1",
"i. c #CADCEA",
"p. c #2C4254",
"a. c #F9FBFD",
"s. c #417197",
"d. c #474E66",
"f. c #4F90C3",
"g. c #50718C",
"h. c #3B6485",
"j. c #8BAFCC",
"k. c #3E6B8F",
"l. c #3F698A",
"z. c #385C78",
"x. c #5591C0",
"c. c #BED3E4",
"v. c #739CBC",
"b. c #C4D8E7",
"n. c #C1D5E6",
"m. c #659AC4",
"M. c #DC608E",
"N. c #487EA8",
"B. c #88B3D6",
"V. c #E6EEF5",
"C. c #436C8D",
"Z. c #5B87AA",
"A. c #FFE56F",
"S. c #5889A4",
"D. c #8D9B68",
"F. c #678D8E",
"G. c #548AAF",
"H. c #B7AE45",
"J. c #434A61",
"K. c #4C85B2",
"L. c #604F6A",
"P. c #B45B82",
"I. c #775372",
"U. c #FF6598",
"Y. c #7B5271",
"T. c #C4B955",
"R. c #99587C",
"E. c #5E8DA2",
"W. c #548CB4",
"Q. c #E2C740",
"!. c #F1C60E",
"~. c #9CA362",
"^. c #3A607E",
"/. c #7199B8",
"(. c #47704C",
/* pixels */
"                                                                ",
"                                                                ",
"                                                                ",
"                                                                ",
"                                                                ",
"                                                                ",
"                                                                ",
"                                                                ",
"                            . @ @ @ .                           ",
"                        @ w H u I u A w i                       ",
"                    % 7 0 c.n.i.i.i.n.c.0 7 %                   ",
"                    8 = v.b.V.a.a.a.V.b.v.= 8                   ",
"                  O e 8.m.B.5.5.5.5.5.B.m.8.e O                 ",
"                  + x.;.>.;.f.e.r.e.f.;.>.;.x.+                 ",
"                # + t ;.;.>.G.D.H.~.S.;.;.u.t + #               ",
"              % r G u.1.4.e.F.!.A.A.D.e.1.4.2.V r %             ",
"              O h <.8.2.2.;.S.H.Q.T.F.u.2.K.<.3.N O             ",
"              q Y <.w.9.2.>.;.W.E.G.u.>.r.6.y.3.& q             ",
"              # T b 6 7.w.r.Z.j.j.j.Z.2.w.7.g Z , X             ",
"                : 5 -.q.-.<.C.g.g.g.C.N.-.q.* #                 ",
"              > 5 q.6.k.,.s.9.h.,.9.3.3.h.-.v $                 ",
"          X , g h.-.6.t.t.,.q.J.7.y.9.t.k.,.w.n                 ",
"        X s = ^.j ( 5 ~ 3.:.I.M.P.d.,.<.` 6 z. .<               ",
"    . k W h 1.) m 1 1 / s.-.R.U.M.d.6.= ; m ..1.b E #           ",
"    K z _ 1.1.{ i     [ l.-.d.Y.L.7.:.6 O.| %.r.8.+.f .         ",
"    f 4 p , ] ^ l     n :.:.:.:.y.z.6.l.#.Q $.M M } z l         ",
"    y D # k 4 ' 2 $ > d 4.4.N.& & U 4.1.<./.@.c   ! 4 y         ",
"        # R c < v 3 x :.,.s.J S p s L ,.k.t.o.X.: 2 y           ",
"              : 3 0.0.:.l.d <     # ; j -.z.-.x a F :           ",
"                o - p.P ; :         X B - p.p.0.3 o X           ",
"                $ C 0.*               X 9 - a * $               ",
"                  > 9 $                 % o 1                   "
};
