/* XPM */
static char *d3e4cc4ef4fa4b5ec7aad28ac3693256b6VguKeXgo0p0j9U[] = {
/* columns rows colors chars-per-pixel */
"64 64 199 2 ",
"   c #2EB082",
".  c #36393D",
"X  c #3A3C3E",
"o  c #433E3E",
"O  c #4D3F3B",
"+  c #45403F",
"@  c #4E403C",
"#  c #55423B",
"$  c #6C4A3A",
"%  c #3C3E41",
"&  c #3E4144",
"*  c #424243",
"=  c #4C4543",
"-  c #454649",
";  c #44494E",
":  c #484B4D",
">  c #534743",
",  c #5D4C45",
"<  c #564844",
"1  c #5D524E",
"2  c #454A50",
"3  c #494E54",
"4  c #4B5056",
"5  c #4E5259",
"6  c #50555C",
"7  c #624E46",
"8  c #6D5347",
"9  c #6B5348",
"0  c #645047",
"q  c #715549",
"w  c #75594C",
"e  c #7C5B4B",
"r  c #6A615E",
"t  c #646668",
"y  c #6C6E71",
"u  c #797676",
"i  c #6F7073",
"p  c #8A4D32",
"a  c #8C543B",
"s  c #885238",
"d  c #98583A",
"f  c #845E4C",
"g  c #8F5941",
"h  c #9D5E41",
"j  c #925C43",
"k  c #A05F41",
"l  c #8D624E",
"z  c #94644D",
"x  c #9E6449",
"c  c #926651",
"v  c #996856",
"b  c #A16245",
"n  c #A1664A",
"m  c #A5694D",
"M  c #AB6B4E",
"N  c #AA6746",
"B  c #B16E4E",
"V  c #A46C52",
"C  c #AB6E52",
"Z  c #B16F50",
"A  c #AD7155",
"S  c #AC7358",
"D  c #B47354",
"F  c #BB7656",
"G  c #BE7857",
"H  c #B27559",
"J  c #B97758",
"K  c #B6785C",
"L  c #BC7A5B",
"P  c #BE7E4E",
"I  c #987364",
"U  c #9C7373",
"Y  c #97777E",
"T  c #8E6D6D",
"R  c #AE7C6B",
"E  c #A77869",
"W  c #BB7F62",
"Q  c #C07A57",
"!  c #C17A58",
"~  c #BD815D",
"^  c #9C857E",
"/  c #BF8061",
"(  c #AD8777",
")  c #B98972",
"_  c #CD8444",
"`  c #C5844C",
"'  c #D38A4B",
"]  c #D38948",
"[  c #C68A57",
"{  c #C78C5C",
"}  c #CA8C5A",
"|  c #C78555",
" . c #D38C55",
".. c #DB9354",
"X. c #D4925D",
"o. c #DD955A",
"O. c #E19759",
"+. c #E49A5B",
"@. c #EB9E5D",
"#. c #EDA05F",
"$. c #C38668",
"%. c #C99468",
"&. c #D89966",
"*. c #CA9A7B",
"=. c #C88F73",
"-. c #E39C61",
";. c #E89F61",
":. c #D5A277",
">. c #E9A266",
",. c #EBA468",
"<. c #E1A069",
"1. c #E7AD7D",
"2. c #434595",
"3. c #434599",
"4. c #4C4E99",
"5. c #484A9A",
"6. c #4D509D",
"7. c #595A9F",
"8. c #7B6996",
"9. c #4A4CA1",
"0. c #4D51A5",
"q. c #5B5DAD",
"w. c #5557A7",
"e. c #5C5EB2",
"r. c #625DA5",
"t. c #5E60AC",
"y. c #5E60A4",
"u. c #5E61B7",
"i. c #5F62B9",
"p. c #6162AA",
"a. c #6A66A5",
"s. c #6464B4",
"d. c #6365BD",
"f. c #6866B8",
"g. c #7772AE",
"h. c #8A708E",
"j. c #888789",
"k. c #929394",
"l. c #9A9798",
"z. c #95918F",
"x. c #BA9686",
"c. c #B09B94",
"v. c #A09A9C",
"b. c #B6A19A",
"n. c #8488B8",
"m. c #9698BC",
"M. c #A9A9AE",
"N. c #B7A9A5",
"B. c #BDB3AF",
"V. c #BAB8B8",
"C. c #A7B3BF",
"Z. c #C59B83",
"A. c #C9A689",
"S. c #D5A98A",
"D. c #C3A99A",
"F. c #D3A792",
"G. c #CEB299",
"H. c #D8B399",
"J. c #E9B589",
"K. c #E6BC99",
"L. c #C9B6A8",
"P. c #DAB9A7",
"I. c #CBB6A9",
"U. c #D2C2B5",
"Y. c #C9C4BF",
"T. c #E1CCBA",
"R. c #8C98C2",
"E. c #AABCCA",
"W. c #A9B3C4",
"Q. c #B6BDC3",
"!. c #BEBED2",
"~. c #B9C1CD",
"^. c #ADC2D3",
"/. c #B2C5D5",
"(. c #BDCAD5",
"). c #BACDDC",
"_. c #BAC6D6",
"`. c #BCD0DF",
"'. c #BCD0E0",
"]. c #C8C9C8",
"[. c #D7CFC7",
"{. c #C9CAD5",
"}. c #D5D5D5",
"|. c #DDDCDC",
" X c #D6D7D8",
".X c #DAD1CB",
"XX c #E3DAD3",
"oX c #EDD9CE",
"OX c #C8D7E3",
"+X c #DCDDE0",
"@X c #D9E1E7",
"#X c #DCE9F4",
"$X c #E4E3E3",
"%X c #EAEAEA",
"&X c #E4E7EB",
"*X c #E4EDF3",
"=X c #E5F2FB",
"-X c #FBF9F9",
";X c #F5EFEB",
/* pixels */
"                                                                                                                                ",
"                                                                                                                                ",
"                                                                                                                                ",
"                                                                                                                                ",
"                                                                                                                                ",
"                                                                                                                                ",
"                                                                                                                                ",
"                                                                                                                                ",
"                                                                                                                                ",
"                                                                                                                                ",
"                                                                                                                                ",
"                                                                                                                                ",
"                                                                                                                                ",
"                                                                                                                                ",
"                                                                                                                                ",
"                                                                                                                                ",
"                                                                                                                                ",
"                                      5 5 4 5 4 4 4 3 3 4 4 4 4 4 4 4 4 4 4 5 5 6       6 6 5                                   ",
"                                    4 3 2 2 2 ; 2 2 2 2 2 2 2 2 2 ; ; ; ; ; ; 2 3     4 3 3 3 4                                 ",
"                                  5 2 & % % % % & & & % % % % % % % % % % % % % & & * * & % & ; 4                               ",
"                                  2 & X X X X X % % % % % % % % % % % % % % % % % % X X X X X % ;                               ",
"                                  - & X X X X X % % % % % % % % % % % % % % % % % % X X X X X % -                               ",
"                                  - & X X X X X % % % % % % % % % % % % % % % % % % X X X X X & ;                               ",
"                                    * X X X X X % % % % % % % % % % % % % % % % % % X X X X X *                                 ",
"                                    * % X X X X % % % % % % % % % % % % % % % % % % X X X X % *                                 ",
"                                    - % X X X X % % % % % % % % % % % % % % % % % % X X X X % -                                 ",
"                                    ; & X = > * * * % % % % % % % % % % % % % * = 7 w l 8 X & -                                 ",
"                                    : & X 8 A C V c f e q q q q q q q q e f l v D F Q F q X & -                                 ",
"                                    ; & % , F G F F F F F F F F G G G F F F F F F F F F , X & -                                 ",
"                                    1 & X = D D , > > , 7 7 9 C ! G ! f , 7 7 < > < f D = X & 1                                 ",
"                                  K c * X * V A w u j.u t r 8 A ! G G f r y y j.Y w z V + X * c K                               ",
"                                H H z + X X z F *.;X{.i t N.$.G G G G / N.y t ].-XF.F z X . o z H H                             ",
"                                S M d @ . X e F F.-Xk.. X z.=.D D D D $.j.X . l.-XP.G e X . O a m A                             ",
"                              S A b d # . . 8 F $.oX|.l.k.D.G d d d d F x.k.l.|.oX=.F 9 . . # a x C S                           ",
"                              S A m d $ o * f F F $.H.P.F.W V a s s s m L F.P.P.$.F F f o o $ d b C S                           ",
"                                H D N h x V F F F F F D l 7 = * o + * = , f D F F F F D x j d b C S                             ",
"                                  K K F F F F F G G F w % % % % % % % % % % 9 D G F F D D D C A S                               ",
"                                      K K G F F G G F f 7 7 7 q l l q 0 7 7 w D G F F F H H H                                   ",
"                                          L G F G Q ! F F F F G ! ! G F F F F G G F F F L                                       ",
"                                    OX  H.| G G G G F G G G G G G G G F G G G G G G L x.B.                                      ",
"                                  (.'.OXH.o.%.b.N.c.E n k h h h h h x ( c.b.b.Z.X.X.L.(.`.                                      ",
"                              L K b._.(.S.+.:.V./.^.W.v.I g p p s v l.W.E.V.A.&.+.>.].'.B.)                                     ",
"                          L L J F W Q._.G.+.+.<.S.L.~.^.E.M.^ I z.W.E.E.D.&.O.+.@.>.Y.N.W G L                                   ",
"                      / L L F D D D x./.L.O.O.+.+.-.S.].)././.(././.(.G.+.+.@.@.@.>.Z.L F F G L                                 ",
"                    L L F F D D D Z H M.B.o.O.O.+.@.@.1.[.OXOX#X@X XK.;.@.@.@.@.@.@.! F F F F G L                               ",
"                L L J F F D D D D A C ( B.&.O.O.+.@.@.@.,.K.*X=X*XK.#.>.#.#.@.@.@.+.Q F F F F G G L L                           ",
"              K H F D F D D D D D A H     &.o.O.+.@.@.@.@.,.$X=X&XJ.@.@.@.@.@.@.@.+.Q F F F G F F F L K                         ",
"            S H D D D D D D D A A         &.+.O.+.@.@.@.@.>.XX=X*XJ.+.@.@.@.@.@.@.;.L L F F F F F F F H H                       ",
"          S S C C Z Z Z Z M C A A           -.+.+.+.@.@.@.>.XX#X#XK.+.+.+.+.@.@.@.@.  J G F F F F D D D H                       ",
"          S C M M M M M M M C A m           -.+.O.O.O.....X.].).).D.' ' ' ' ' ' ....  D G F F F D D D C A S                     ",
"          S V n m m m M M M M m b           X. .' ' _ _ _ | Q././.V.` _ _ _ _ _ ' |   B F F F D D D Z M C S                     ",
"          S V m n n n n m m m n              .' _ _ _ ` P ( m.R.R.n.Y U U E R R R h.T N F F F D D Z M M C S                     ",
"            V V m n n n m V n x             R ~ R U h.8.a.p.t.q.q.q.q.q.e.s.s.s.f.d.a.v B F F D D C M C C S                     ",
"                V V m V V                 w.w.r.s.u.e.e.q.q.q.q.t.t.q.q.q.e.u.d.d.d.d.a.I F F D D A A A S                       ",
"                    S               %X%X&Xg.5.9.w.e.e.q.q.t.        y.q.q.q.e.e.i.u.w.0.0.  F H D S S                           ",
"                                X.S.$X%X%X!.0.3.3.9.q.q.t.p.            t.q.q.q.w.9.5.5.9.p.  *.                                ",
"                                X.&.T.$X$X$Xn.2.2.2.6.q.p.                p.w.4.2.3.3.6.n.{.$X$X@X XU.                          ",
"                                  } S.|.$X$X~.7.2.5.4.                      6.2.2.2.a.W.+X$X$X|..XG.%.%.                        ",
"                                  } } U.|.|.|.m.4.4.                          4.y.m.}.|.|.|.}.I.%.} }                           ",
"                                    } *.}.}.}.{.                                ~.}.}. X}.I.*.} }                               ",
"                                    } { I.}.}.                                    }.}.U.A.{ [ {                                 ",
"                                      [ *.[.                                        G.%.[ [                                     ",
"                                      { %.I.                                          {                                         ",
"                                                                                                                                "
};
