/* XPM */
static char *_5683247a65f4d61f714951f7b6b287f13d72aYB1tH5Za6y[] = {
/* columns rows colors chars-per-pixel */
"32 32 60 1 ",
"  c #2EB082",
". c white",
"X c white",
"o c None",
"O c white",
"+ c white",
"@ c white",
"# c white",
"$ c white",
"% c white",
"& c white",
"* c white",
"= c white",
"- c white",
"; c white",
": c white",
"> c white",
", c white",
"< c white",
"1 c white",
"2 c white",
"3 c white",
"4 c white",
"5 c white",
"6 c white",
"7 c white",
"8 c white",
"9 c white",
"0 c white",
"q c white",
"w c white",
"e c #3F9EDD",
"r c #419FDD",
"t c #3D9DDC",
"y c #A2D0EF",
"u c #3789BF",
"i c #F6FAFE",
"p c #EBF5FC",
"a c #55A8DF",
"s c #4CA5DF",
"d c #FEFFFF",
"f c #C7E2F4",
"g c #44A1DE",
"h c #79BCE7",
"j c #3E99D5",
"k c #AFD1E7",
"l c #B3D9F2",
"z c #3C93CC",
"x c #D1E8F7",
"c c #5FAEE2",
"v c #69B3E4",
"b c #9FCCEA",
"n c #D6EBF8",
"m c #8EC7EB",
"M c #B0D7F1",
"N c #83BDE3",
"B c #96CAEC",
"V c #4396CD",
"C c #BBDDF3",
"Z c #47704C",
/* pixels */
"                                ",
"                                ",
"                                ",
"                                ",
"                                ",
"                                ",
"                                ",
"                                ",
"         $OO+                   ",
"       +;4..85O                 ",
"      $Xoxllfi1#                ",
"     $7oysggsBi1$               ",
"     30Mseeeegbo=#######O$      ",
"    $Xpcerssresx&@@@@@@<-X#     ",
"    O-Cgeafxcerhyyyyyyyylp%     ",
"    #@ytehidmtrettttttttgl-O    ",
"    #@yttmddbtreeerrrrrrty@#    ",
"    O:Mrevpiheravvajjjjjcn>+    ",
"    $4xsegmBsegMiibuuuuuk09     ",
"     *iherrrrevp><kuuuuuk.O     ",
"     2.nceeetaf<w,kzzVzzk.O     ",
"      6:nhaahf&;+,faNfNaf,+     ",
"       3>oppi:;$ qipidipdX$     ",
"        #=%%*2   O;%%%%%*#      ",
"                                ",
"                                ",
"                                ",
"                                ",
"                                ",
"                                ",
"                                ",
"                                "
};
