/* XPM */
static char *c5dc119d21224195a558f171dd8d0dcaCFBDfanvW1H3CqGf[] = {
/* columns rows colors chars-per-pixel */
"32 32 39 1 ",
"  c #2EB082",
". c #9EBDBF",
"X c #92B0B2",
"o c #9CBBBD",
"O c #9EBEC0",
"+ c #A2C2C3",
"@ c #A1C1C3",
"# c #9DBDBF",
"$ c #A4C4C5",
"% c #9EBEBF",
"& c #98B7B9",
"* c #8DA8AB",
"= c None",
"- c #A1C1C3",
"; c #419FDD",
": c #8BA6A8",
"> c #89A4A6",
", c #3687BD",
"< c #409CDA",
"1 c #378AC0",
"2 c #81A3AC",
"3 c #49A0D7",
"4 c #90ACAE",
"5 c #3D98D3",
"6 c #82A2A8",
"7 c #3A92CC",
"8 c #5895B6",
"9 c #419EDC",
"0 c #95B2B4",
"q c #388DC5",
"w c #498FBB",
"e c #7B9FAA",
"r c #408DBE",
"t c #3789C0",
"y c #729CAD",
"u c #9EBEC0",
"i c #4D9BCA",
"p c #3687BC",
"a c #489DD3",
/* pixels */
"         @&#..ouuuo.#-@$        ",
"       %O.004444444400.O%$      ",
"     +Oo0:>>>>>>>>>>>>44oO+     ",
"    @#0:>>>>>>>>>>>>>>>>:0#+    ",
"   @#4>>>>>>6666666>>>>>>>4#@   ",
"  +#4>>>>>y8wwrrrrw88e>>>>>4#+  ",
" $O4>>>>e8r7555<<5577r8e>>>>4O$ ",
" %4>>>>yw7<;;;;9;;;;9<7we>>>>4% ",
"$X:>>>ew5;;;;;;;;;;;;;;5we>>>:X$",
"%=>>>685;;;;;99<<<9;;;;;586>>>=%",
"&:>>>y5;;;;<7qqqqq77<;;;;5y>>>:&",
"X>>>>8<;;;51,,,,,,p,15;;;<8>>>>X",
"*>>>6i;;;51,,,,,,,,,,15;;;i6>>>*",
":>>>2a;;97p,,,,,,,,,,,79;;a2>>>:",
">>>>23;;<1,,,,,,,,,,,,1<;;32>>>>",
">>>>23;;<1,,,,,,,,,,,,1<;;32>>>>",
">>>>23;;<1,,,,,,,,,,,,1<;;32>>>>",
">>>>23;;<1,,,,,,,,,,,,1<;;32>>>>",
">>>>23;;<1,,,,,,,,,,,,1<;;32>>>>",
">>>>23;;<1,,,,,,,,,,,,1<;;32>>>>",
">>>>23;;<1,,,,,,,,,,,,1<;;32>>>>",
">>>>23;;<1,,,,,,,,,,,,1<;;32>>>>",
">>>>23;;<1,,,,,,,,,,,,1<;;32>>>>",
">>>>23;;<1,,,,,,,,,,,,1<;;32>>>>",
">>>>23;;<1,,,,,,,,,,,,1<;;32>>>>",
">>>>23;;<1,,,,,,,,,,,,1<;;32>>>>",
">>>>23;;<t,,,,,,,,,,,,t<;;32>>>>",
">>>>23;;<qt1111111111tq<;;32>>>>",
">>>>23;;;<<<<<<<<<<<<<<;;;32>>>>",
">>>>23;;;;;;;;;;;;;;;;;;;;32>>>>",
">>>>23;;;;;;;;;;;;;;;;;;;;32>>>>",
">>>>23;;;;;;;;;;;;;;;;;;;;32>>>>"
};
