/* XPM */
static char *_9a8492695604b5db8ec01a6a7c39c04JKriIoh1dUUB8yua[] = {
/* columns rows colors chars-per-pixel */
"32 32 10 1 ",
"  c #3688BE",
". c #409FDD",
"X c #89A4A6",
"o c gray20",
"O c #459FDA",
"+ c #85A4A9",
"@ c #3685BA",
"# c #334754",
"$ c #35739B",
"% c #345E7A",
/* pixels */
"XXXX+O....................O+XXXX",
"XXXX+O....................O+XXXX",
"XXXX+O....................O+XXXX",
"XXXX+O....................O+XXXX",
"XXXX+O...              ...O+XXXX",
"XXXX+O... @  @@  @@  @ ...O+XXXX",
"XXXX+O...   @  @@  @   ...O+XXXX",
"XXXX+O...  @ $####$ @  ...O+XXXX",
"XXXX+O... @ $oooooo$ @ ...O+XXXX",
"XXXX+O... @ #oooooo# @ ...O+XXXX",
"XXXX+O...  @oooooooo@  ...O+XXXX",
"XXXX+O...  @oooooooo@  ...O+XXXX",
"XXXX+O... @ #oooooo# @ ...O+XXXX",
"XXXX+O... @ $oooooo$ @ ...O+XXXX",
"XXXX+O...  @ $oooo$ @  ...O+XXXX",
"XXXX+O...     oooo@    ...O+XXXX",
"XXXX+O...    @oooo@    ...O+XXXX",
"XXXX+O...    @oooo@    ...O+XXXX",
"XXXX+O...    @%%%%@    ...O+XXXX",
"XXXX+O...  @           ...O+XXXX",
"XXXX+O...              ...O+XXXX",
"XXXX+O...              ...O+XXXX",
"XXXX+O...              ...O+XXXX",
"XXXX+O...              ...O+XXXX",
"XXXX+O...              ...O+XXXX",
"XXXX+O...              ...O+XXXX",
"XXXX+O... @          @ ...O+XXXX",
"XXXX+O...              ...O+XXXX",
"XXXX+O....................O+XXXX",
"XXXX+O....................O+XXXX",
"XXXX+O....................O+XXXX",
"XXXX+O....................O+XXXX"
};
