/* XPM */
static char *_f55988bcf714a6ff27d9aea2e4e9654NCfKpr9RfBwNmEOQ[] = {
/* columns rows colors chars-per-pixel */
"32 32 200 2 ",
"   c #2EB082",
".  c #494C52",
"X  c #A9755D",
"o  c #D08E5D",
"O  c #AE755B",
"+  c #A6694D",
"@  c #4C5158",
"#  c #A28A84",
"$  c #AD785D",
"%  c #575C63",
"&  c #4B4F54",
"*  c #BD7B5C",
"=  c #C1845A",
"-  c #404347",
";  c #454647",
":  c #B37659",
">  c #484C6A",
",  c #BE805C",
"<  c #A56B50",
"1  c #C98D5C",
"2  c #5B5DA2",
"3  c #5E5FAD",
"4  c None",
"5  c #4D51A6",
"6  c #A0694F",
"7  c #4C5157",
"8  c #4E5259",
"9  c #AB7258",
"0  c #494D52",
"q  c #464A4F",
"w  c #4C4F55",
"e  c #AC7358",
"r  c #3D3F42",
"t  c #C2845A",
"y  c #3F4143",
"u  c #CC966B",
"i  c #D0B59D",
"p  c #AB6D51",
"a  c #AD7053",
"s  c #5F5C9E",
"d  c #AF755A",
"f  c #6A5147",
"g  c #CE8D60",
"h  c #B37355",
"j  c #A86D52",
"k  c #B87555",
"l  c #E59C5E",
"z  c #6F6FAE",
"x  c #CFA078",
"c  c #E9EAEC",
"v  c #AA6E52",
"b  c #BCBDD1",
"n  c #A66A4F",
"m  c #4F545C",
"M  c #4D5258",
"N  c #B77759",
"B  c #535761",
"V  c #AF7357",
"C  c #44474B",
"Z  c #A56D52",
"A  c #AB7156",
"S  c #47494C",
"D  c #BA7B5D",
"F  c #AC6F53",
"G  c #C17C58",
"H  c #BA795A",
"J  c #B4816A",
"K  c #BDB3B2",
"L  c #B97757",
"P  c #B7846D",
"I  c #CEA17D",
"U  c #BABCD3",
"Y  c #5D60AA",
"T  c #BB7855",
"R  c #C78B59",
"E  c #CC976B",
"W  c #BC7B5B",
"Q  c #D8D7D4",
"!  c #4E509E",
"~  c #BC8A74",
"^  c #D7C7BA",
"/  c #E0DFE0",
"(  c #AF7D6D",
")  c #A26A4F",
"_  c #A86C50",
"`  c #786494",
"'  c #C99971",
"]  c #E29756",
"[  c #AD7059",
"{  c #A66A58",
"}  c #9D9EBE",
"|  c #BC9A8B",
" . c #5F61AA",
".. c #BBA49B",
"X. c #6163AC",
"o. c #BC846A",
"O. c #6062AE",
"+. c #BFCCD6",
"@. c #C2DBEC",
"#. c #C68B6A",
"$. c #C8D1D9",
"%. c #B08A7B",
"&. c #CDA686",
"*. c #C88F60",
"=. c #D6D7D7",
"-. c #5D5FAD",
";. c #CFBBAB",
":. c #CFA480",
">. c #D19666",
",. c #D9AB85",
"<. c #D68F51",
"1. c #EAE6E2",
"2. c #846985",
"3. c #B66D6D",
"4. c #3C3C4A",
"5. c #3A4555",
"6. c #3C3E41",
"7. c #3A3C3E",
"8. c #41454A",
"9. c #B67455",
"0. c #3A3D41",
"q. c #AE6F51",
"w. c #BA7555",
"e. c #C07957",
"r. c #BB7756",
"t. c #B37153",
"y. c #976650",
"u. c #BB7D5E",
"i. c #594A45",
"p. c #E89C5D",
"a. c #5D4D47",
"s. c #8B624F",
"d. c #E39959",
"f. c #514643",
"g. c #595BAF",
"h. c #DF9453",
"j. c #735649",
"k. c #EDA05F",
"l. c #D5D4D5",
"z. c #EC9F5D",
"x. c #C0BCB9",
"c. c #665048",
"v. c #87614F",
"b. c #705143",
"n. c #6766B5",
"m. c #C8834D",
"M. c #6562A9",
"N. c #7779B1",
"B. c #DCD4CD",
"V. c #464898",
"C. c #714D3C",
"Z. c #444040",
"A. c #E9A469",
"S. c #E29E63",
"D. c #B1B1B6",
"F. c #EAA871",
"G. c #CB9E7F",
"H. c #E3CEBB",
"J. c #E1C3AF",
"K. c #E3E3E4",
"L. c #818385",
"P. c #B4AAA9",
"I. c #A96E53",
"U. c #C38161",
"Y. c #B2775B",
"T. c #9D9D9E",
"R. c #746E6C",
"E. c #C5957E",
"W. c #918179",
"Q. c #9C6750",
"!. c #A79088",
"~. c #987464",
"^. c #C5A08C",
"/. c #3F3F40",
"(. c #B27B5F",
"). c #B87A5D",
"_. c #7A594B",
"`. c #8E583F",
"'. c #DA9866",
"]. c #AB7D6B",
"[. c #AC9990",
"{. c #9BA1BB",
"}. c #A0A6BE",
"|. c #D5A379",
" X c #D1C7BF",
".X c #945D44",
"XX c #B98562",
"oX c #AC958A",
"OX c #DBE7F1",
"+X c #DEB9A7",
"@X c #D0884A",
"#X c #866E8E",
"$X c #75679B",
"%X c #AEB8C2",
"&X c #64473A",
"*X c #A76443",
"=X c #975A3F",
"-X c #A8755D",
";X c #9D6B55",
":X c #A9A1A2",
/* pixels */
"                                                                ",
"                                                                ",
"                                                                ",
"                                                                ",
"                                                                ",
"                                                                ",
"                                                                ",
"                        # % % % % % # #                         ",
"                % m 0 M 8 7 @ @ @ @ 7 8 w B & . %               ",
"                . q 8.8.8.8.8.8.8.8.8.8.- ; C q &               ",
"                & 6.7.7.6.6.6.6.6.6.6.6.6.6.7.6.0               ",
"                . r 7.7.6.6.6.6.6.6.6.6.6.7.7.r .               ",
"                S y 7.7.0.0.0.0.0.0.0.0.6./.6.y w               ",
"                > - f._.j.c.a.a.a.a.c.j.v.y.i.- >               ",
"                $ ; f.q.s.v.v.Q.r.I.s.s.s.< f.; $               ",
"              $ : f Z.6 oXL.R.-Xe.Y.R.L.[.y.Z.f : $             ",
"              O p C.7.y.+XT.W.).*X9.W.T.J.y.7.C.< O             ",
"              d a .Xj.I.U.E.~.b.&Xb.~.E.U.< b.`._ d             ",
"              # , h k e.e.6 i.i.c.i.i.y.e.w.k h j #             ",
"                @.$.#.e.u.w.t.9.w.9.Y.).e.o.| #                 ",
"            $ W ..+.4 G.P.!.;X=XQ.!.P.G.'.x.K o                 ",
"        # g * L ).D.4 S.4 x.%X:XD.x.|.p.A.^.u.* t               ",
"      $ D H w.t.q.%.&.d.p.A.J.OXB.F.z.k.p.e.r.r.* , #           ",
"    $ : 9.9.t.t.v O x d.p.z.F.K.H.z.k.k.l G r.r.w.N O           ",
"    9 p q.q.q.q.n   g l d.d.S.l. Xh.h.h.] T r.w.9.t.V =         ",
"    9 < + + + < j   o <.@Xm.XX}.{.].(.u.( { w.9.t.q.a e         ",
"    X Z ) 6 v n X c z 2.#X$XM.O.O.3 M.n.n.` [ 9.q.F A $         ",
"        e O X o ,.1.b 5 5 g.-.z  .Y 3 g.g.5 s ~ P J X           ",
"              o >.H.K.N.V.s X.    # 2 ! V.N.U / ^ I =           ",
"              # 1 :.l.b 2 >           2 } l.B.i E 1 u           ",
"                $ *.;.=.  #           # Q i ' R =               ",
"                  , x c                 u 1 t                   "
};
