/* XPM */
static char *ee31543673c64fe9fe067d4d3269a92b7wJpfcboehA7952H[] = {
/* columns rows colors chars-per-pixel */
"32 32 201 2 ",
"   c #2EB082",
".  c #494C52",
"X  c #A9755D",
"o  c #D08E5D",
"O  c #AE755B",
"+  c #A6694D",
"@  c #4C5158",
"#  c #A28A84",
"$  c #AD785D",
"%  c #575C63",
"&  c #4B4F54",
"*  c #BD7B5C",
"=  c #404347",
"-  c #C1845A",
";  c #B37659",
":  c #454647",
">  c #BE805C",
",  c #484C6A",
"<  c #A56B50",
"1  c #C98D5C",
"2  c #5B5DA2",
"3  c #5E5FAD",
"4  c None",
"5  c #A0694F",
"6  c #AB7258",
"7  c #4C5157",
"8  c #4E5259",
"9  c #494D52",
"0  c #464A4F",
"q  c #AC7358",
"w  c #3D3F42",
"e  c #AB6D51",
"r  c #AE7158",
"t  c #3F4143",
"y  c #C2845A",
"u  c #CC966B",
"i  c #AD7053",
"p  c #5F5C9E",
"a  c #AF755A",
"s  c #D0B59D",
"d  c #CE8D60",
"f  c #6A5147",
"g  c #B37355",
"h  c #AA6E52",
"j  c #A86D52",
"k  c #E9EAEC",
"l  c #CFA078",
"z  c #B87555",
"x  c #E59C5E",
"c  c #A66A4F",
"v  c #6F6FAE",
"b  c #BCBDD1",
"n  c #51565D",
"m  c #4F545C",
"M  c #4D5258",
"N  c #A56D52",
"B  c #535761",
"V  c #BA7B5D",
"C  c #B77759",
"Z  c #44474B",
"A  c #47494C",
"S  c #A26A4F",
"D  c #BA795A",
"F  c #AB7156",
"G  c #46484B",
"H  c #BC7B5B",
"J  c #B97757",
"K  c #CEA17D",
"L  c #AC6F53",
"P  c #B7846D",
"I  c #C99971",
"U  c #BABCD3",
"Y  c #D8D7D4",
"T  c #B4816A",
"R  c #BB7855",
"E  c #CC976B",
"W  c #4B4EA6",
"Q  c #4E509E",
"!  c #C78B59",
"~  c #BC8A74",
"^  c #D7C7BA",
"/  c #E0DFE0",
"(  c #AF7D6D",
")  c #786494",
"_  c #BBA49B",
"`  c #A66A58",
"'  c #9D9EBE",
"]  c #C17C58",
"[  c #E29756",
"{  c #C2DBEC",
"}  c #BDB3B2",
"|  c #5D60AA",
" . c #BFCCD6",
".. c #A86C50",
"X. c #C68B6A",
"o. c #5F61AA",
"O. c #B08A7B",
"+. c #BC9A8B",
"@. c #C8D1D9",
"#. c #6062AE",
"$. c #C88F60",
"%. c #BC846A",
"&. c #CDA686",
"*. c #6163AC",
"=. c #D9AB85",
"-. c #CFA480",
";. c #D6D7D7",
":. c #5D5FAD",
">. c #CFBBAB",
",. c #D19666",
"<. c #D68F51",
"1. c #EAE6E2",
"2. c #846985",
"3. c #697995",
"4. c #41733E",
"5. c #3C3E41",
"6. c #41454A",
"7. c #B67455",
"8. c #393B3E",
"9. c #3A3D41",
"0. c #B27152",
"q. c #C07957",
"w. c #BB7756",
"e. c #AE6E50",
"r. c #BA7555",
"t. c #976650",
"y. c #BB7C5E",
"u. c #594A45",
"i. c #3B3D3F",
"p. c #5D4D47",
"a. c #8B624F",
"s. c #E89C5D",
"d. c #E39959",
"f. c #514643",
"g. c #595BAF",
"h. c #735649",
"j. c #D5D4D5",
"k. c #DF9453",
"l. c #EDA05F",
"z. c #87614F",
"x. c #EC9F5D",
"c. c #665048",
"v. c #C0BCB9",
"b. c #705143",
"n. c #6766B5",
"m. c #714D3C",
"M. c #444040",
"N. c #DCD4CD",
"B. c #7779B1",
"V. c #464898",
"C. c #E9A469",
"Z. c #E29E63",
"A. c #6562A9",
"S. c #C8834D",
"D. c #EAA871",
"F. c #CB9E7F",
"G. c #B1B1B6",
"H. c #E1C3AF",
"J. c #E3E3E4",
"K. c #E3CEBB",
"L. c #818385",
"P. c #AA6F53",
"I. c #B4AAA9",
"U. c #C38161",
"Y. c #9D9D9E",
"T. c #746E6C",
"R. c #4F52A6",
"E. c #A79088",
"W. c #9C6750",
"Q. c #918179",
"!. c #C5957E",
"~. c #B2775B",
"^. c #987464",
"/. c #B67A5E",
"(. c #3F3F40",
"). c #7A594B",
"_. c #C5A08C",
"`. c #B27B5F",
"'. c #8E583F",
"]. c #AB7D6B",
"[. c #9BA1BB",
"{. c #945D44",
"}. c #D1C7BF",
"|. c #AC958A",
" X c #DA9866",
".X c #AC9990",
"XX c #A0A6BE",
"oX c #DEB9A7",
"OX c #DBE7F1",
"+X c #B98562",
"@X c #D5A379",
"#X c #AEB8C2",
"$X c #64473A",
"%X c #D0884A",
"&X c #866E8E",
"*X c #75679B",
"=X c #A76443",
"-X c #A8755D",
";X c #A9A1A2",
":X c #9D6B55",
">X c #975A3F",
/* pixels */
"                                                                ",
"                                                                ",
"                                                                ",
"                                                                ",
"                                                                ",
"                                                                ",
"                                                                ",
"                        # # % % % % % #                         ",
"              % . & B n 8 7 @ @ @ @ 7 8 M 9 m %                 ",
"              & 0 Z : = 6.6.6.6.6.6.6.6.6.6.0 .                 ",
"              9 5.8.5.5.5.5.5.5.5.5.5.5.i.8.5.&                 ",
"              . w 8.i.5.5.5.5.5.5.5.5.5.i.8.w .                 ",
"              G t i.(.5.9.9.9.9.9.9.9.9.i.8.t A                 ",
"              , = u.t.z.h.c.p.p.p.p.c.h.).f.= ,                 ",
"              $ : f.< a.a.a.P.w.W.z.z.a.P.f.: $                 ",
"            $ ; f M.t..XL.T.~.q.-XT.L.|.5 M.f ; $               ",
"            O < m.8.t.H.Y.Q.7.=Xy.Q.Y.oXt.i.m.e O               ",
"            a ..'.b.< U.!.^.b.$Xb.^.!.U.P.h.{.i a               ",
"            # j g z r.q.t.u.u.c.u.u.5 q.q.z g > #               ",
"                # +.%.q.y.~.7.r.7.0.r.y.q.X.@.{                 ",
"                o } v. XF.I.E.W.>X:XE.I.F.4  ._ H $             ",
"              y * y._.C.s.@Xv.G.;X#Xv.4 Z.4 G./.J * d #         ",
"          # > * w.w.q.s.l.x.D.N.OXH.C.s.d.&.O.0.7.r.D V $       ",
"          O C r.w.w.] x l.l.x.K.J.D.x.s.d.l O h 0.0.7.7.; $     ",
"        - r 0.7.r.w.R [ k.k.k.}.j.Z.d.d.x d   c e.e.e.e.e 6     ",
"        q i e.0.7.r.` ( y.`.].[.XX+XS.%X<.o   j < + + + < 6     ",
"        $ F L 0.7.r ) n.n.A.3 #.#.A.*X&X2.v k X c h 5 S N X     ",
"          X T P ~ p W g.g.3 | o.v :.g.R.R.b 1.=.o X O q         ",
"          - K ^ / U B.V.Q 2 #     *.p V.B.J.K.,.o               ",
"          u 1 E s N.j.' 2         # , 2 b j.-.1                 ",
"              - ! I s Y #             # ;.>.$.$                 ",
"                  y 1 u                 k l >                   "
};
