/* XPM */
static char *d3921bd80caa41809ed91a7b6e97717c[] = {
/* columns rows colors chars-per-pixel */
"32 32 171 2 ",
"   c #2EB082",
".  c #B57B5F",
"X  c #AE765C",
"o  c #B97A56",
"O  c #BB7857",
"+  c #4F545A",
"@  c #4C4F54",
"#  c None",
"$  c #89695C",
"%  c #B47557",
"&  c #AA6E51",
"*  c #4D5055",
"=  c #494C51",
"-  c #6D605E",
";  c #AD745B",
":  c #474C51",
">  c #B17356",
",  c #B07559",
"<  c #A87055",
"1  c #B97C5C",
"2  c #B5775A",
"3  c #B77759",
"4  c #6668BE",
"5  c #4F545A",
"6  c #474B51",
"7  c #494C51",
"8  c #AD7054",
"9  c #A76D52",
"0  c #B67759",
"q  c #3D3F42",
"w  c #A26A4E",
"e  c #B6C0CB",
"r  c #B88169",
"t  c #A46E54",
"y  c #3F4245",
"u  c #B9C2CB",
"i  c #B8CFE0",
"p  c #BD937F",
"a  c #C1D1DF",
"s  c #BA7D5E",
"d  c #D9E6F0",
"f  c #E2F0FA",
"g  c #AB6D51",
"h  c #E1CDBC",
"j  c #E2F3FF",
"k  c #A36C52",
"l  c #A6684E",
"z  c #A56D53",
"x  c #AA6A4B",
"c  c #5F5CA6",
"v  c #CD9E75",
"b  c #D0C2BB",
"n  c #8386BD",
"m  c #CCA27F",
"M  c #DAD9D8",
"N  c #5A5CB1",
"B  c #797BB6",
"V  c #DAD9D9",
"C  c #CDA583",
"Z  c #54585E",
"A  c #50545A",
"S  c #474B51",
"D  c #494D53",
"F  c #4A4F55",
"G  c #4A4F55",
"H  c #474B52",
"J  c #494D51",
"K  c #45474A",
"L  c #3F4143",
"P  c #3F4144",
"I  c #AE765C",
"U  c #404346",
"Y  c #DA9559",
"T  c #E29E65",
"R  c #B17458",
"E  c #D99255",
"W  c #DFA26F",
"Q  c #5A4C47",
"!  c #68534A",
"~  c #C27E5A",
"^  c #D7925F",
"/  c #AB7E74",
"(  c #AC6D50",
")  c #AA6C4F",
"_  c #CF8F63",
"`  c #A57B7A",
"'  c #6A6ABA",
"]  c #3C3E41",
"[  c #EA9D5D",
"{  c #3A3C3F",
"}  c #B47252",
"|  c #B87555",
" . c #4E4542",
".. c #CCA381",
"X. c #464242",
"o. c #A5684C",
"O. c #996750",
"+. c #C07857",
"@. c #A96B4D",
"#. c #BA7554",
"$. c #AF6F51",
"%. c #424041",
"&. c #AC6F52",
"*. c #A46D53",
"=. c #9F6B52",
"-. c #CE9974",
";. c #D98D4B",
":. c #DAD8D8",
">. c #6267C2",
",. c #BA9382",
"<. c #BB7D5F",
"1. c #E6A269",
"2. c #E0DCD8",
"3. c #8F614C",
"4. c #93634D",
"5. c #3E4145",
"6. c #5457AF",
"7. c #7576B2",
"8. c #BBB8BA",
"9. c #E69B5B",
"0. c #554843",
"q. c #E5A773",
"w. c #5D4C46",
"e. c #DD9558",
"r. c #81513B",
"t. c #787270",
"y. c #E3D4C6",
"u. c #C0A899",
"i. c #B7C4CE",
"p. c #B29489",
"a. c #857067",
"s. c #E0C4B7",
"d. c #AD7D69",
"f. c #948F92",
"g. c #8A6B60",
"h. c #6F635F",
"j. c #DFE4E6",
"k. c #C0C7CE",
"l. c #A26144",
"z. c #AD8978",
"x. c #997686",
"c. c #91748E",
"v. c #8575A4",
"b. c #787EC6",
"n. c #5255AE",
"m. c #7374B1",
"M. c #D1E3F1",
"N. c #C6C3C1",
"B. c #D1E2EF",
"V. c #705449",
"C. c #D39E71",
"Z. c #D88F4F",
"A. c #684C40",
"S. c #D1A37B",
"D. c #A6ACB2",
"F. c #82868A",
"G. c #785242",
"H. c #897F7B",
"J. c #A06D56",
"K. c #BCB4AE",
"L. c #DE9C64",
"P. c #B5A495",
"I. c #CAAC9E",
"U. c #A1A4A9",
"Y. c #979B9E",
"T. c #BCCBDA",
"R. c #D29460",
"E. c #6368C2",
"W. c #1B0012",
"Q. c #00182A",
"!. c #47704C",
/* pixels */
"                                                                ",
"                                                                ",
"                                                                ",
"                                                                ",
"                                                                ",
"                                                                ",
"                                                                ",
"                                                                ",
"                  $ @ * 5 = + + + + 5 * $ ] Z :                 ",
"                A F H 6 S ] ] ] ] ] ] 6 J 7 D G @               ",
"                7 5.{ ] ] ] ] ] ] ] ] ] 5.] ] 5.=               ",
"                = ] { { ] ] ] ] ] ] ] ] ] { { q *               ",
"                K q { { ] ] ] ] ] ] ] ] { { { L @               ",
"                @ P X.0. .X.%.%.%.%.X. .w.V. .y :               ",
"                : y w.&.O.3.3.O.=.O.4.O.*.&. .U -               ",
"              % X Q  .=.a.t.h.J.+.J.h.t.a.4.X.! 2               ",
"              2 g A.%.*.s.F.H.<.} <.t.Y.s.4.{ G.> I             ",
"              X @.r.0.*.-.u.z.3.r.4.z.I.-.4. .r.g s             ",
"              ; R ( & #.+.=.0.X. .X.w.*.+.| & ) < $             ",
"                % s ~ +.+.$.O.=.&.=.O.} +.O 3 , %               ",
"                j h ^ ,.p.d.o.l.l.o.d.p.,._ h j                 ",
"            i d f y.9.C.u.D.f.g.g.f.U.P.-.L.2.f d i             ",
"          e u a M.y.[ 9.e.S.8.i.i.K.-.e.e.1.2.B.a u e           ",
"          . r ,.8.N.1.[ [ [ q.j.2.1.9.9.9.q.k.8.,.r .           ",
"          1 | #.<.p T [ [ [ q.j.2.1.[ [ 9.W p <.#.| 1           ",
"        % 0 | #.O o E ;.;.;.-.T.k.R.;.;.Z.Y 2 O #.| 0 %         ",
"        . > } | O 3 1 ` x.c.v.b.b.v.c.x./ o 3 O | } > .         ",
"        , 8 $.} } } l 4 >.>.E.4 4 >.>.E.' l } } } $.8 ,         ",
"        ; 9 @.@.&.$.x c 6.n.6.N N 6.n.6.c x $.&.@.@.9 ;         ",
"        - < w o.o.& o n 7.m.7.B B 7.m.7.n o & o.o.w < -         ",
"          $ t k z X b M :.:.:.V V :.:.:.M b X z k t $           ",
"                  v m ........C C ........m v                   "
};
