/* XPM */
static char *ef68e12d9018478b90f7b7065032dda3[] = {
/* columns rows colors chars-per-pixel */
"32 32 147 2 ",
"   c #2EB082",
".  c #4C4F53",
"X  c #B47A5F",
"o  c #AD6F52",
"O  c #4F545B",
"+  c #4A4E53",
"@  c #45494D",
"#  c None",
"$  c #87685B",
"%  c #B37558",
"&  c #A46A4F",
"*  c #BF7958",
"=  c #AE765C",
"-  c #AB7155",
";  c #464A50",
":  c #4B4F54",
">  c #3D3F42",
",  c #4E5258",
"<  c #6F5F5C",
"1  c #B17356",
"2  c #AD745A",
"3  c #AF755A",
"4  c #B6775A",
"5  c #B77758",
"6  c #CB976F",
"7  c #51555C",
"8  c #3D3F42",
"9  c #3F4144",
"0  c #A86D52",
"q  c #A56D53",
"w  c #B57759",
"e  c #B6795C",
"r  c #B9C8D6",
"t  c #B88169",
"y  c #BA7757",
"u  c #E5D1C0",
"i  c #BD937F",
"p  c #BB7858",
"a  c #D8925F",
"s  c #B8D0E0",
"d  c #AB6E51",
"f  c #E3F5FF",
"g  c #D8E5EE",
"h  c #C0D1DE",
"j  c #C17F56",
"k  c #AA6F55",
"l  c #A36C52",
"z  c #A36C52",
"x  c #AA6E52",
"c  c #AA6B4B",
"v  c #6469C2",
"b  c #D1C3BB",
"n  c #8387BD",
"m  c #CCA280",
"M  c #DAD9D8",
"N  c #5A5CB1",
"B  c #797AB5",
"V  c #CDA583",
"C  c #474B51",
"Z  c #4A4F55",
"A  c #494D53",
"S  c #484B50",
"D  c #494C51",
"F  c #484B50",
"G  c #424447",
"H  c #5C4E48",
"J  c #67524A",
"K  c #B1785C",
"L  c #AF765B",
"P  c #AD6F52",
"I  c #A86C50",
"U  c #E2EFF9",
"Y  c #E29E65",
"T  c #E2EEF8",
"R  c #DFA26F",
"E  c #B9C2CC",
"W  c #C37E5B",
"Q  c #B9C1CA",
"!  c #D99257",
"~  c #D99153",
"^  c #A77D79",
"/  c #BC825F",
"(  c #A17A7F",
")  c #696ABB",
"_  c #605CA7",
"`  c #6869BC",
"'  c #5F5CA7",
"]  c #DBD9DA",
"[  c #DAD9DA",
"{  c #3A743E",
"}  c #3C3E41",
"|  c #3A3D40",
" . c #B77455",
".. c #393B3E",
"X. c #EA9E5D",
"o. c #B37153",
"O. c #BA7758",
"+. c #EEA15F",
"@. c #E89C5C",
"#. c #DBD9D9",
"$. c #95758A",
"%. c #A96B4D",
"&. c #E7A36A",
"*. c #5356AF",
"=. c #D78C4A",
"-. c #7375B2",
";. c #C6C8CA",
":. c #B99688",
">. c #AC6D4F",
",. c #A4684C",
"<. c #564A46",
"1. c #664F45",
"2. c #755547",
"3. c #E4A673",
"4. c #EC9F5E",
"5. c #CCA280",
"6. c #CCA381",
"7. c #D88C4A",
"8. c #6367C2",
"9. c #3F4245",
"0. c #584B46",
"q. c #BD9B8C",
"w. c #D1E3F0",
"e. c #C09F91",
"r. c #EAA061",
"t. c #D0BAA7",
"y. c #885F4D",
"u. c #E3D3C6",
"i. c #DBA171",
"p. c #CC8659",
"a. c #E49A5B",
"s. c #B9B7BA",
"d. c #D88D4C",
"f. c #AE6E50",
"g. c #987686",
"h. c #6266C2",
"j. c #4A423F",
"k. c #90573C",
"l. c #C8C5C2",
"z. c #55453E",
"x. c #C5C2C0",
"c. c #C79980",
"v. c #85533D",
"b. c #C59479",
"n. c #E5DDD5",
"m. c #6368C2",
"M. c #47704C",
/* pixels */
"                                                                ",
"                                                                ",
"                                                                ",
"                                                                ",
"                                                                ",
"                                                                ",
"                                                                ",
"                                                                ",
"                  , , } , 7 : O O O O : 7 + . $                 ",
"                + @ @ S D ; } } } } } } ; ; C Z .               ",
"                F 9.} > > } } } } } } } } | | 9.A               ",
"                : > ..| } } } } } } } } } | ..8 +               ",
"                + 8 | | } } } } } } } } } | ..9 .               ",
"                . 9 | | } } } } } } } } } | | @ ,               ",
"                , @ | | } } } } } } } } } | } G <               ",
"              % = H ..| } } } } } } } } } | | J 4               ",
"              4 P 1...| } } } } } } } } | | ..2.1 K             ",
"              = %.v.j.| | | | | | | | | | | z.k.I L             ",
"              2 k o & y.2.1.0.<.<.<.0.1.2.y.& o d $             ",
"                % 6 W * * O. . . . . .O.* * 5 3 %               ",
"                f u a p.c.e.q.:.:.q.e.b.p.a u f                 ",
"            s g U u.X.a.i.t.;.;.;.l.t.i.a.&.n.T g s             ",
"          r E h w.u.r.4.X.r.&.3.3.&.X.X.X.&.#.w.h Q r           ",
"          X t :.s.x.&.X.4.+.+.+.+.+.+.4.@.3.;.s.:.t X           ",
"          e O. .O.i Y @.@.X.X.X.X.X.@.@.@.R i O. . .e           ",
"        % w  .O.p j ~ d.7.7.7.=.=.=.=.=.d.! 4 p O. .w %         ",
"        X 1 o. .y 5 / ( g.$.$.$.$.$.$.g.^ j 5 y  .o.1 X         ",
"        3 o f.o.o.o.k ` 8.h.8.v v 8.h.m.) d o.o.o.f.o 3         ",
"        2 0 %.%.>.f.c ' *.*.*.N N *.*.*._ c f.>.%.%.0 2         ",
"        < q & ,.,.x - n -.-.-.B B -.-.-.n - x ,.,.& q <         ",
"          $ - l z = b M #.#.#.] [ #.#.#.M b = z l - $           ",
"                  6 m 6.5.5.6.V V 6.5.5.6.m 6                   "
}
