/* XPM */
static char *_d8565ba277441f0e9fe9638c924c73ebeQJDwScePsnAXjP[] = {
/* columns rows colors chars-per-pixel */
"32 32 43 1 ",
"  c #000000",
". c #381811",
"X c #713122",
"o c #D66B51",
"O c #080302",
"+ c None",
"@ c #030101",
"# c black",
"$ c black",
"% c #0B0503",
"& c #D96C51",
"* c #D56A50",
"= c #A74B35",
"- c #C65A41",
"; c #AB543F",
": c #592C21",
"> c #9D4732",
", c #341811",
"< c #844232",
"1 c #662E20",
"2 c #B05842",
"3 c #CA654C",
"4 c #53271C",
"5 c #903F2C",
"6 c #1E0E0A",
"7 c #26120C",
"8 c #3B1C14",
"9 c #2E150F",
"0 c #803928",
"q c #411E16",
"w c #D1674D",
"e c #A24935",
"r c #934532",
"t c #6F3527",
"y c #C16048",
"u c #170A07",
"i c #793727",
"p c #CC6148",
"a c #B9543C",
"s c #873B29",
"d c #4C231A",
"f c #BA5C45",
"g c #602E23",
/* pixels */
"$####$####################$####$",
"@    O         OO         O    @",
"uisi17r222222=e4:222222;e070si1u",
"6r=5s9;&ooo&op-1t&ooooow->,e=50u",
"6r=5s9;o*of<3p-1to*****w->,>e50u",
"6r=5s9;&o&y<3p-1t&ooooow->,e=50u",
"+ist16<;;;22;e>d:2;;;;;;>i700t1u",
"%,888,8q8867,,,99,,976qqq8,88,9%",
"7f333333faq1e>>>>>rs4df<y3333a=6",
"7yo*****--55======>5:42tyo**w-;7",
"7y******-->r======>5:4******w-;6",
"7y&&&&&op-dt======>5:4o&&&&&*-a7",
"+i<<<<<<ii7q111111g4,9<<<<<<<it+",
"%4:4dud::::::4479:::::::4quqq8,%",
"7y*-a8;ow*w*op-1t&****ow->,>e507",
"7y*-a8;2g;:fop-1to*****w->,>e5sX",
"7y*-a8;3;y;3*p-1to*****w->,>e50.",
"7y*-a8;&&o&oop-1t&****ow->,>e50u",
"%4:4dud::::::4479:::::::4quqq8,%",
"+:111111:46:<<<<<<0id9<<<<<<<it+",
"6>======r5,r&&&&&&w-04o&w3o&*-a7",
"6r======5s,r&*****p-04*org3ww-;6",
"6r======rs,r&*****p-04**3ytr*-;7",
"65>>>>>>50,<333333paid3333;23a=6",
"%9,,,7,,9969qqq,,gy:76qqq8,88,9%",
"6>;er9<2;;;;;e>d:fy2;;;;>i700t1u",
"7yo-a8;&&oooop-1tf4f&oow->,e=50u",
"7y*-a8;2f****p-1twfw***w->,>e50u",
"7y*-a8;ir&ooop-1t&&oooow->,e=50u",
"6e2er9<2;2222=e4:222222;e070si1u",
"@    O         OO         O    @",
"$####$####################$####$"
};
